  0
SECTION
  2
HEADER
  9
$ACADVER
  1
AC1024
  9
$ACADMAINTVER
 70
6
  9
$DWGCODEPAGE
  3
ANSI_1252
  9
$LASTSAVEDBY
  1
ezdxf
  9
$INSBASE
 10
0.0
 20
0.0
 30
0.0
  9
$EXTMIN
 10
1e+20
 20
1e+20
 30
1e+20
  9
$EXTMAX
 10
-1e+20
 20
-1e+20
 30
-1e+20
  9
$LIMMIN
 10
0.0
 20
0.0
  9
$LIMMAX
 10
420.0
 20
297.0
  9
$ORTHOMODE
 70
0
  9
$REGENMODE
 70
1
  9
$FILLMODE
 70
1
  9
$QTEXTMODE
 70
0
  9
$MIRRTEXT
 70
1
  9
$LTSCALE
 40
1.0
  9
$ATTMODE
 70
1
  9
$TEXTSIZE
 40
2.5
  9
$TRACEWID
 40
1.0
  9
$TEXTSTYLE
  7
OpenSans
  9
$CLAYER
  8
0
  9
$CELTYPE
  6
ByLayer
  9
$CECOLOR
 62
256
  9
$CELTSCALE
 40
1.0
  9
$DISPSILH
 70
0
  9
$DIMSCALE
 40
1.0
  9
$DIMASZ
 40
0.175
  9
$DIMEXO
 40
0.125
  9
$DIMDLI
 40
3.75
  9
$DIMRND
 40
0.0
  9
$DIMDLE
 40
0.0
  9
$DIMEXE
 40
0.375
  9
$DIMTP
 40
0.0
  9
$DIMTM
 40
0.0
  9
$DIMTXT
 40
0.25
  9
$DIMCEN
 40
2.5
  9
$DIMTSZ
 40
0.0
  9
$DIMTOL
 70
0
  9
$DIMLIM
 70
0
  9
$DIMTIH
 70
0
  9
$DIMTOH
 70
0
  9
$DIMSE1
 70
0
  9
$DIMSE2
 70
0
  9
$DIMTAD
 70
1
  9
$DIMZIN
 70
12
  9
$DIMBLK
  1
ARCHTICK
  9
$DIMASO
 70
1
  9
$DIMSHO
 70
1
  9
$DIMPOST
  1

  9
$DIMAPOST
  1

  9
$DIMALT
 70
0
  9
$DIMALTD
 70
3
  9
$DIMALTF
 40
0.03937007874
  9
$DIMLFAC
 40
100.0
  9
$DIMTOFL
 70
1
  9
$DIMTVP
 40
0.0
  9
$DIMTIX
 70
0
  9
$DIMSOXD
 70
0
  9
$DIMSAH
 70
0
  9
$DIMBLK1
  1

  9
$DIMBLK2
  1

  9
$DIMSTYLE
  2
EZDXF
  9
$DIMCLRD
 70
0
  9
$DIMCLRE
 70
0
  9
$DIMCLRT
 70
0
  9
$DIMTFAC
 40
0.5
  9
$DIMGAP
 40
0.1
  9
$DIMJUST
 70
0
  9
$DIMSD1
 70
0
  9
$DIMSD2
 70
0
  9
$DIMTOLJ
 70
0
  9
$DIMTZIN
 70
8
  9
$DIMALTZ
 70
0
  9
$DIMALTTZ
 70
0
  9
$DIMUPT
 70
1
  9
$DIMDEC
 70
2
  9
$DIMTDEC
 70
2
  9
$DIMALTU
 70
2
  9
$DIMALTTD
 70
3
  9
$DIMTXSTY
  7
OpenSansCondensed-Light
  9
$DIMAUNIT
 70
0
  9
$DIMADEC
 70
2
  9
$DIMALTRND
 40
0.0
  9
$DIMAZIN
 70
3
  9
$DIMDSEP
 70
46
  9
$DIMATFIT
 70
3
  9
$DIMFRAC
 70
0
  9
$DIMLDRBLK
  1

  9
$DIMLUNIT
 70
2
  9
$DIMLWD
 70
-2
  9
$DIMLWE
 70
-2
  9
$DIMTMOVE
 70
2
  9
$DIMFXL
 40
1.0
  9
$DIMFXLON
 70
0
  9
$DIMJOGANG
 40
0.785398163397
  9
$DIMTFILL
 70
0
  9
$DIMTFILLCLR
 70
0
  9
$DIMARCSYM
 70
0
  9
$DIMLTYPE
  6

  9
$DIMLTEX1
  6

  9
$DIMLTEX2
  6

  9
$DIMTXTDIRECTION
 70
0
  9
$LUNITS
 70
2
  9
$LUPREC
 70
4
  9
$SKETCHINC
 40
1.0
  9
$FILLETRAD
 40
10.0
  9
$AUNITS
 70
0
  9
$AUPREC
 70
2
  9
$MENU
  1
.
  9
$ELEVATION
 40
0.0
  9
$PELEVATION
 40
0.0
  9
$THICKNESS
 40
0.0
  9
$LIMCHECK
 70
0
  9
$CHAMFERA
 40
0.0
  9
$CHAMFERB
 40
0.0
  9
$CHAMFERC
 40
0.0
  9
$CHAMFERD
 40
0.0
  9
$SKPOLY
 70
0
  9
$TDCREATE
 40
2461309.817326389
  9
$TDUCREATE
 40
2458532.153996898
  9
$TDUPDATE
 40
2461309.817326389
  9
$TDUUPDATE
 40
2458532.1544311
  9
$TDINDWG
 40
0.0
  9
$TDUSRTIMER
 40
0.0
  9
$USRTIMER
 70
1
  9
$ANGBASE
 50
0.0
  9
$ANGDIR
 70
0
  9
$PDMODE
 70
0
  9
$PDSIZE
 40
0.0
  9
$PLINEWID
 40
0.0
  9
$SPLFRAME
 70
0
  9
$SPLINETYPE
 70
6
  9
$SPLINESEGS
 70
8
  9
$HANDSEED
  5
244
  9
$SURFTAB1
 70
6
  9
$SURFTAB2
 70
6
  9
$SURFTYPE
 70
6
  9
$SURFU
 70
6
  9
$SURFV
 70
6
  9
$UCSBASE
  2

  9
$UCSNAME
  2

  9
$UCSORG
 10
0.0
 20
0.0
 30
0.0
  9
$UCSXDIR
 10
1.0
 20
0.0
 30
0.0
  9
$UCSYDIR
 10
0.0
 20
1.0
 30
0.0
  9
$UCSORTHOREF
  2

  9
$UCSORTHOVIEW
 70
0
  9
$UCSORGTOP
 10
0.0
 20
0.0
 30
0.0
  9
$UCSORGBOTTOM
 10
0.0
 20
0.0
 30
0.0
  9
$UCSORGLEFT
 10
0.0
 20
0.0
 30
0.0
  9
$UCSORGRIGHT
 10
0.0
 20
0.0
 30
0.0
  9
$UCSORGFRONT
 10
0.0
 20
0.0
 30
0.0
  9
$UCSORGBACK
 10
0.0
 20
0.0
 30
0.0
  9
$PUCSBASE
  2

  9
$PUCSNAME
  2

  9
$PUCSORG
 10
0.0
 20
0.0
 30
0.0
  9
$PUCSXDIR
 10
1.0
 20
0.0
 30
0.0
  9
$PUCSYDIR
 10
0.0
 20
1.0
 30
0.0
  9
$PUCSORTHOREF
  2

  9
$PUCSORTHOVIEW
 70
0
  9
$PUCSORGTOP
 10
0.0
 20
0.0
 30
0.0
  9
$PUCSORGBOTTOM
 10
0.0
 20
0.0
 30
0.0
  9
$PUCSORGLEFT
 10
0.0
 20
0.0
 30
0.0
  9
$PUCSORGRIGHT
 10
0.0
 20
0.0
 30
0.0
  9
$PUCSORGFRONT
 10
0.0
 20
0.0
 30
0.0
  9
$PUCSORGBACK
 10
0.0
 20
0.0
 30
0.0
  9
$USERI1
 70
0
  9
$USERI2
 70
0
  9
$USERI3
 70
0
  9
$USERI4
 70
0
  9
$USERI5
 70
0
  9
$USERR1
 40
0.0
  9
$USERR2
 40
0.0
  9
$USERR3
 40
0.0
  9
$USERR4
 40
0.0
  9
$USERR5
 40
0.0
  9
$WORLDVIEW
 70
1
  9
$SHADEDGE
 70
3
  9
$SHADEDIF
 70
70
  9
$TILEMODE
 70
1
  9
$MAXACTVP
 70
64
  9
$PINSBASE
 10
0.0
 20
0.0
 30
0.0
  9
$PLIMCHECK
 70
0
  9
$PEXTMIN
 10
1e+20
 20
1e+20
 30
1e+20
  9
$PEXTMAX
 10
-1e+20
 20
-1e+20
 30
-1e+20
  9
$PLIMMIN
 10
0.0
 20
0.0
  9
$PLIMMAX
 10
420.0
 20
297.0
  9
$UNITMODE
 70
0
  9
$VISRETAIN
 70
1
  9
$PLINEGEN
 70
0
  9
$PSLTSCALE
 70
1
  9
$TREEDEPTH
 70
3020
  9
$CMLSTYLE
  2
Standard
  9
$CMLJUST
 70
0
  9
$CMLSCALE
 40
20.0
  9
$PROXYGRAPHICS
 70
1
  9
$MEASUREMENT
 70
1
  9
$CELWEIGHT
370
-1
  9
$ENDCAPS
280
0
  9
$JOINSTYLE
280
0
  9
$LWDISPLAY
290
0
  9
$INSUNITS
 70
4
  9
$HYPERLINKBASE
  1

  9
$STYLESHEET
  1

  9
$XEDIT
290
1
  9
$CEPSNTYPE
380
0
  9
$PSTYLEMODE
290
1
  9
$FINGERPRINTGUID
  2
{65120543-7B89-4EEC-A11D-8FD54FBB74B4}
  9
$VERSIONGUID
  2
{1D43395C-8D61-4C69-B9A6-FBA71D198C16}
  9
$EXTNAMES
290
1
  9
$PSVPSCALE
 40
0.0
  9
$OLESTARTUP
290
0
  9
$SORTENTS
280
127
  9
$INDEXCTL
280
0
  9
$HIDETEXT
280
1
  9
$XCLIPFRAME
280
1
  9
$HALOGAP
280
0
  9
$OBSCOLOR
 70
257
  9
$OBSLTYPE
280
0
  9
$INTERSECTIONDISPLAY
280
0
  9
$INTERSECTIONCOLOR
 70
257
  9
$DIMASSOC
280
2
  9
$PROJECTNAME
  1

  9
$CAMERADISPLAY
290
0
  9
$LENSLENGTH
 40
50.0
  9
$CAMERAHEIGHT
 40
0.0
  9
$STEPSPERSEC
 40
24.0
  9
$STEPSIZE
 40
100.0
  9
$3DDWFPREC
 40
2.0
  9
$PSOLWIDTH
 40
0.005
  9
$PSOLHEIGHT
 40
0.08
  9
$LOFTANG1
 40
1.570796326795
  9
$LOFTANG2
 40
1.570796326795
  9
$LOFTMAG1
 40
0.0
  9
$LOFTMAG2
 40
0.0
  9
$LOFTPARAM
 70
7
  9
$LOFTNORMALS
280
1
  9
$LATITUDE
 40
37.795
  9
$LONGITUDE
 40
-122.394
  9
$NORTHDIRECTION
 40
0.0
  9
$TIMEZONE
 70
-8000
  9
$LIGHTGLYPHDISPLAY
280
1
  9
$TILEMODELIGHTSYNCH
280
1
  9
$CMATERIAL
347
20
  9
$SOLIDHIST
280
0
  9
$SHOWHIST
280
1
  9
$DWFFRAME
280
2
  9
$DGNFRAME
280
2
  9
$REALWORLDSCALE
290
1
  9
$INTERFERECOLOR
 62
256
  9
$CSHADOW
280
0
  9
$SHADOWPLANELOCATION
 40
0.0
  0
ENDSEC
  0
SECTION
  2
CLASSES
  0
CLASS
  1
ACDBDICTIONARYWDFLT
  2
AcDbDictionaryWithDefault
  3
ObjectDBX Classes
 90
0
 91
0
280
0
281
0
  0
CLASS
  1
SUN
  2
AcDbSun
  3
SCENEOE
 90
1153
 91
0
280
0
281
0
  0
CLASS
  1
VISUALSTYLE
  2
AcDbVisualStyle
  3
ObjectDBX Classes
 90
4095
 91
0
280
0
281
0
  0
CLASS
  1
MATERIAL
  2
AcDbMaterial
  3
ObjectDBX Classes
 90
1153
 91
0
280
0
281
0
  0
CLASS
  1
SCALE
  2
AcDbScale
  3
ObjectDBX Classes
 90
1153
 91
0
280
0
281
0
  0
CLASS
  1
TABLESTYLE
  2
AcDbTableStyle
  3
ObjectDBX Classes
 90
4095
 91
0
280
0
281
0
  0
CLASS
  1
MLEADERSTYLE
  2
AcDbMLeaderStyle
  3
ACDB_MLEADERSTYLE_CLASS
 90
4095
 91
0
280
0
281
0
  0
CLASS
  1
DICTIONARYVAR
  2
AcDbDictionaryVar
  3
ObjectDBX Classes
 90
0
 91
0
280
0
281
0
  0
CLASS
  1
CELLSTYLEMAP
  2
AcDbCellStyleMap
  3
ObjectDBX Classes
 90
1152
 91
0
280
0
281
0
  0
CLASS
  1
MENTALRAYRENDERSETTINGS
  2
AcDbMentalRayRenderSettings
  3
SCENEOE
 90
1024
 91
0
280
0
281
0
  0
CLASS
  1
ACDBDETAILVIEWSTYLE
  2
AcDbDetailViewStyle
  3
ObjectDBX Classes
 90
1025
 91
0
280
0
281
0
  0
CLASS
  1
ACDBSECTIONVIEWSTYLE
  2
AcDbSectionViewStyle
  3
ObjectDBX Classes
 90
1025
 91
0
280
0
281
0
  0
CLASS
  1
RASTERVARIABLES
  2
AcDbRasterVariables
  3
ISM
 90
0
 91
0
280
0
281
0
  0
CLASS
  1
ACDBPLACEHOLDER
  2
AcDbPlaceHolder
  3
ObjectDBX Classes
 90
0
 91
0
280
0
281
0
  0
CLASS
  1
LAYOUT
  2
AcDbLayout
  3
ObjectDBX Classes
 90
0
 91
0
280
0
281
0
  0
ENDSEC
  0
SECTION
  2
TABLES
  0
TABLE
  2
VPORT
  5
8
330
0
100
AcDbSymbolTable
 70
1
  0
VPORT
  5
23
330
8
100
AcDbSymbolTableRecord
100
AcDbViewportTableRecord
  2
*Active
 70
0
 10
0.0
 20
0.0
 11
1.0
 21
1.0
 12
0.0
 22
0.0
 13
0.0
 23
0.0
 14
0.5
 24
0.5
 15
0.5
 25
0.5
 16
0.0
 26
0.0
 36
1.0
 17
0.0
 27
0.0
 37
0.0
 40
1000.0
 41
1.34
 42
50.0
 43
0.0
 44
0.0
 50
0.0
 51
0.0
 71
0
 72
1000
 73
1
 74
3
 75
0
 76
0
 77
0
 78
0
281
0
 65
0
146
0.0
  0
ENDTAB
  0
TABLE
  2
LTYPE
  5
2
330
0
100
AcDbSymbolTable
 70
21
  0
LTYPE
  5
24
330
2
100
AcDbSymbolTableRecord
100
AcDbLinetypeTableRecord
  2
ByBlock
 70
0
  3

 72
65
 73
0
 40
0.0
  0
LTYPE
  5
25
330
2
100
AcDbSymbolTableRecord
100
AcDbLinetypeTableRecord
  2
ByLayer
 70
0
  3

 72
65
 73
0
 40
0.0
  0
LTYPE
  5
26
330
2
100
AcDbSymbolTableRecord
100
AcDbLinetypeTableRecord
  2
Continuous
 70
0
  3

 72
65
 73
0
 40
0.0
  0
LTYPE
  5
2F
330
2
100
AcDbSymbolTableRecord
100
AcDbLinetypeTableRecord
  2
CENTER
 70
0
  3
Center ____ _ ____ _ ____ _ ____ _ ____ _ ____
 72
65
 73
4
 40
5.08
 49
3.175
 74
0
 49
-0.635
 74
0
 49
0.635
 74
0
 49
-0.635
 74
0
  0
LTYPE
  5
30
330
2
100
AcDbSymbolTableRecord
100
AcDbLinetypeTableRecord
  2
CENTERX2
 70
0
  3
Center (2x) ________  __  ________  __  ________
 72
65
 73
4
 40
8.89
 49
6.35
 74
0
 49
-0.635
 74
0
 49
1.27
 74
0
 49
-0.635
 74
0
  0
LTYPE
  5
31
330
2
100
AcDbSymbolTableRecord
100
AcDbLinetypeTableRecord
  2
CENTER2
 70
0
  3
Center (.5x) ____ _ ____ _ ____ _ ____ _ ____
 72
65
 73
4
 40
2.54
 49
1.587
 74
0
 49
-0.318
 74
0
 49
0.318
 74
0
 49
-0.318
 74
0
  0
LTYPE
  5
32
330
2
100
AcDbSymbolTableRecord
100
AcDbLinetypeTableRecord
  2
DASHED
 70
0
  3
Dashed __ __ __ __ __ __ __ __ __ __ __ __ __ _
 72
65
 73
2
 40
1.524
 49
1.27
 74
0
 49
-0.254
 74
0
  0
LTYPE
  5
33
330
2
100
AcDbSymbolTableRecord
100
AcDbLinetypeTableRecord
  2
DASHEDX2
 70
0
  3
Dashed (2x) ____  ____  ____  ____  ____  ____
 72
65
 73
2
 40
3.048
 49
2.54
 74
0
 49
-0.508
 74
0
  0
LTYPE
  5
34
330
2
100
AcDbSymbolTableRecord
100
AcDbLinetypeTableRecord
  2
DASHED2
 70
0
  3
Dashed (.5x) _ _ _ _ _ _ _ _ _ _ _ _ _ _
 72
65
 73
2
 40
0.762
 49
0.635
 74
0
 49
-0.127
 74
0
  0
LTYPE
  5
35
330
2
100
AcDbSymbolTableRecord
100
AcDbLinetypeTableRecord
  2
PHANTOM
 70
0
  3
Phantom ______  __  __  ______  __  __  ______
 72
65
 73
6
 40
6.35
 49
3.175
 74
0
 49
-0.635
 74
0
 49
0.635
 74
0
 49
-0.635
 74
0
 49
0.635
 74
0
 49
-0.635
 74
0
  0
LTYPE
  5
36
330
2
100
AcDbSymbolTableRecord
100
AcDbLinetypeTableRecord
  2
PHANTOMX2
 70
0
  3
Phantom (2x)____________    ____    ____    ____________
 72
65
 73
6
 40
10.795
 49
6.35
 74
0
 49
-0.635
 74
0
 49
1.27
 74
0
 49
-0.635
 74
0
 49
1.27
 74
0
 49
-0.635
 74
0
  0
LTYPE
  5
37
330
2
100
AcDbSymbolTableRecord
100
AcDbLinetypeTableRecord
  2
PHANTOM2
 70
0
  3
Phantom (.5x) ___ _ _ ___ _ _ ___ _ _ ___ _ _ ___
 72
65
 73
6
 40
3.175
 49
1.587
 74
0
 49
-0.318
 74
0
 49
0.318
 74
0
 49
-0.318
 74
0
 49
0.318
 74
0
 49
-0.318
 74
0
  0
LTYPE
  5
38
330
2
100
AcDbSymbolTableRecord
100
AcDbLinetypeTableRecord
  2
DASHDOT
 70
0
  3
Dash dot __ . __ . __ . __ . __ . __ . __ . __
 72
65
 73
4
 40
3.556
 49
2.54
 74
0
 49
-0.508
 74
0
 49
0.0
 74
0
 49
-0.508
 74
0
  0
LTYPE
  5
39
330
2
100
AcDbSymbolTableRecord
100
AcDbLinetypeTableRecord
  2
DASHDOTX2
 70
0
  3
Dash dot (2x) ____  .  ____  .  ____  .  ____
 72
65
 73
4
 40
6.096
 49
5.08
 74
0
 49
-0.508
 74
0
 49
0.0
 74
0
 49
-0.508
 74
0
  0
LTYPE
  5
3A
330
2
100
AcDbSymbolTableRecord
100
AcDbLinetypeTableRecord
  2
DASHDOT2
 70
0
  3
Dash dot (.5x) _ . _ . _ . _ . _ . _ . _ . _
 72
65
 73
4
 40
1.778
 49
1.27
 74
0
 49
-0.254
 74
0
 49
0.0
 74
0
 49
-0.254
 74
0
  0
LTYPE
  5
3B
330
2
100
AcDbSymbolTableRecord
100
AcDbLinetypeTableRecord
  2
DOT
 70
0
  3
Dot .  .  .  .  .  .  .  .  .  .  .  .  .  .  .  .
 72
65
 73
2
 40
0.508
 49
0.0
 74
0
 49
-0.508
 74
0
  0
LTYPE
  5
3C
330
2
100
AcDbSymbolTableRecord
100
AcDbLinetypeTableRecord
  2
DOTX2
 70
0
  3
Dot (2x) .    .    .    .    .    .    .    . 
 72
65
 73
2
 40
1.016
 49
0.0
 74
0
 49
-1.016
 74
0
  0
LTYPE
  5
3D
330
2
100
AcDbSymbolTableRecord
100
AcDbLinetypeTableRecord
  2
DOT2
 70
0
  3
Dot (.5) . . . . . . . . . . . . . . . . . . . 
 72
65
 73
2
 40
0.254
 49
0.0
 74
0
 49
-0.254
 74
0
  0
LTYPE
  5
3E
330
2
100
AcDbSymbolTableRecord
100
AcDbLinetypeTableRecord
  2
DIVIDE
 70
0
  3
Divide __ . . __ . . __ . . __ . . __ . . __
 72
65
 73
6
 40
4.064
 49
2.54
 74
0
 49
-0.508
 74
0
 49
0.0
 74
0
 49
-0.508
 74
0
 49
0.0
 74
0
 49
-0.508
 74
0
  0
LTYPE
  5
3F
330
2
100
AcDbSymbolTableRecord
100
AcDbLinetypeTableRecord
  2
DIVIDEX2
 70
0
  3
Divide (2x) ____  . .  ____  . .  ____  . .  ____
 72
65
 73
6
 40
6.604
 49
5.08
 74
0
 49
-0.508
 74
0
 49
0.0
 74
0
 49
-0.508
 74
0
 49
0.0
 74
0
 49
-0.508
 74
0
  0
LTYPE
  5
40
330
2
100
AcDbSymbolTableRecord
100
AcDbLinetypeTableRecord
  2
DIVIDE2
 70
0
  3
Divide(.5x) _ . _ . _ . _ . _ . _ . _ . _
 72
65
 73
6
 40
2.032
 49
1.27
 74
0
 49
-0.254
 74
0
 49
0.0
 74
0
 49
-0.254
 74
0
 49
0.0
 74
0
 49
-0.254
 74
0
  0
ENDTAB
  0
TABLE
  2
LAYER
  5
1
330
0
100
AcDbSymbolTable
 70
11
  0
LAYER
  5
27
330
1
100
AcDbSymbolTableRecord
100
AcDbLayerTableRecord
  2
0
 70
0
 62
7
  6
Continuous
370
-3
390
13
347
21
  0
LAYER
  5
28
330
1
100
AcDbSymbolTableRecord
100
AcDbLayerTableRecord
  2
Defpoints
 70
0
 62
7
  6
Continuous
290
0
370
-3
390
13
347
21
  0
LAYER
  5
8A
330
1
100
AcDbSymbolTableRecord
100
AcDbLayerTableRecord
  2
REF-WALL
 70
0
 62
8
  6
Continuous
370
18
390
13
347
21
  0
LAYER
  5
8B
330
1
100
AcDbSymbolTableRecord
100
AcDbLayerTableRecord
  2
SKIN
 70
0
 62
5
  6
Continuous
370
35
390
13
347
21
  0
LAYER
  5
8C
330
1
100
AcDbSymbolTableRecord
100
AcDbLayerTableRecord
  2
SKELETON
 70
0
 62
3
  6
Continuous
370
35
390
13
347
21
  0
LAYER
  5
8D
330
1
100
AcDbSymbolTableRecord
100
AcDbLayerTableRecord
  2
CUT
 70
0
 62
1
  6
Continuous
370
30
390
13
347
21
  0
LAYER
  5
8E
330
1
100
AcDbSymbolTableRecord
100
AcDbLayerTableRecord
  2
BEND
 70
0
 62
6
  6
DASHED
370
18
390
13
347
21
  0
LAYER
  5
8F
330
1
100
AcDbSymbolTableRecord
100
AcDbLayerTableRecord
  2
WELD
 70
0
 62
30
  6
Continuous
370
35
390
13
347
21
  0
LAYER
  5
90
330
1
100
AcDbSymbolTableRecord
100
AcDbLayerTableRecord
  2
CENTER
 70
0
 62
4
  6
CENTER
370
13
390
13
347
21
  0
LAYER
  5
91
330
1
100
AcDbSymbolTableRecord
100
AcDbLayerTableRecord
  2
DIM
 70
0
 62
250
  6
Continuous
370
13
390
13
347
21
  0
LAYER
  5
92
330
1
100
AcDbSymbolTableRecord
100
AcDbLayerTableRecord
  2
TEXT
 70
0
 62
250
  6
Continuous
370
18
390
13
347
21
  0
ENDTAB
  0
TABLE
  2
STYLE
  5
5
330
0
100
AcDbSymbolTable
 70
27
  0
STYLE
  5
29
330
5
100
AcDbSymbolTableRecord
100
AcDbTextStyleTableRecord
  2
Standard
 70
0
 40
0.0
 41
1.0
 50
0.0
 71
0
 42
2.5
  3
txt
  4

  0
STYLE
  5
41
330
5
100
AcDbSymbolTableRecord
100
AcDbTextStyleTableRecord
  2
OpenSans-Light
 70
0
 40
0.0
 41
1.0
 50
0.0
 71
0
 42
2.5
  3
OpenSans-Light.ttf
  4

  0
STYLE
  5
42
330
5
100
AcDbSymbolTableRecord
100
AcDbTextStyleTableRecord
  2
OpenSans-Light-Italic
 70
0
 40
0.0
 41
1.0
 50
0.0
 71
0
 42
2.5
  3
OpenSans-LightItalic.ttf
  4

  0
STYLE
  5
43
330
5
100
AcDbSymbolTableRecord
100
AcDbTextStyleTableRecord
  2
OpenSans
 70
0
 40
0.0
 41
1.0
 50
0.0
 71
0
 42
2.5
  3
OpenSans-Regular.ttf
  4

  0
STYLE
  5
44
330
5
100
AcDbSymbolTableRecord
100
AcDbTextStyleTableRecord
  2
OpenSans-Italic
 70
0
 40
0.0
 41
1.0
 50
0.0
 71
0
 42
2.5
  3
OpenSans-Italic.ttf
  4

  0
STYLE
  5
45
330
5
100
AcDbSymbolTableRecord
100
AcDbTextStyleTableRecord
  2
OpenSans-SemiBold
 70
0
 40
0.0
 41
1.0
 50
0.0
 71
0
 42
2.5
  3
OpenSans-SemiBold.ttf
  4

  0
STYLE
  5
46
330
5
100
AcDbSymbolTableRecord
100
AcDbTextStyleTableRecord
  2
OpenSans-SemiBoldItalic
 70
0
 40
0.0
 41
1.0
 50
0.0
 71
0
 42
2.5
  3
OpenSans-SemiBoldItalic.ttf
  4

  0
STYLE
  5
47
330
5
100
AcDbSymbolTableRecord
100
AcDbTextStyleTableRecord
  2
OpenSans-Bold
 70
0
 40
0.0
 41
1.0
 50
0.0
 71
0
 42
2.5
  3
OpenSans-Bold.ttf
  4

  0
STYLE
  5
48
330
5
100
AcDbSymbolTableRecord
100
AcDbTextStyleTableRecord
  2
OpenSans-BoldItalic
 70
0
 40
0.0
 41
1.0
 50
0.0
 71
0
 42
2.5
  3
OpenSans-BoldItalic.ttf
  4

  0
STYLE
  5
49
330
5
100
AcDbSymbolTableRecord
100
AcDbTextStyleTableRecord
  2
OpenSans-ExtraBold
 70
0
 40
0.0
 41
1.0
 50
0.0
 71
0
 42
2.5
  3
OpenSans-ExtraBold.ttf
  4

  0
STYLE
  5
4A
330
5
100
AcDbSymbolTableRecord
100
AcDbTextStyleTableRecord
  2
OpenSans-ExtraBoldItalic
 70
0
 40
0.0
 41
1.0
 50
0.0
 71
0
 42
2.5
  3
OpenSans-ExtraBoldItalic.ttf
  4

  0
STYLE
  5
4B
330
5
100
AcDbSymbolTableRecord
100
AcDbTextStyleTableRecord
  2
OpenSansCondensed-Bold
 70
0
 40
0.0
 41
1.0
 50
0.0
 71
0
 42
2.5
  3
OpenSansCondensed-Bold.ttf
  4

  0
STYLE
  5
4C
330
5
100
AcDbSymbolTableRecord
100
AcDbTextStyleTableRecord
  2
OpenSansCondensed-Light
 70
0
 40
0.0
 41
1.0
 50
0.0
 71
0
 42
2.5
  3
OpenSansCondensed-Light.ttf
  4

  0
STYLE
  5
4D
330
5
100
AcDbSymbolTableRecord
100
AcDbTextStyleTableRecord
  2
OpenSansCondensed-Italic
 70
0
 40
0.0
 41
1.0
 50
0.0
 71
0
 42
2.5
  3
OpenSansCondensed-LightItalic.ttf
  4

  0
STYLE
  5
4E
330
5
100
AcDbSymbolTableRecord
100
AcDbTextStyleTableRecord
  2
LiberationSans
 70
0
 40
0.0
 41
1.0
 50
0.0
 71
0
 42
2.5
  3
LiberationSans-Regular.ttf
  4

  0
STYLE
  5
4F
330
5
100
AcDbSymbolTableRecord
100
AcDbTextStyleTableRecord
  2
LiberationSans-Bold
 70
0
 40
0.0
 41
1.0
 50
0.0
 71
0
 42
2.5
  3
LiberationSans-Bold.ttf
  4

  0
STYLE
  5
50
330
5
100
AcDbSymbolTableRecord
100
AcDbTextStyleTableRecord
  2
LiberationSans-BoldItalic
 70
0
 40
0.0
 41
1.0
 50
0.0
 71
0
 42
2.5
  3
LiberationSans-BoldItalic.ttf
  4

  0
STYLE
  5
51
330
5
100
AcDbSymbolTableRecord
100
AcDbTextStyleTableRecord
  2
LiberationSans-Italic
 70
0
 40
0.0
 41
1.0
 50
0.0
 71
0
 42
2.5
  3
LiberationSans-Italic.ttf
  4

  0
STYLE
  5
52
330
5
100
AcDbSymbolTableRecord
100
AcDbTextStyleTableRecord
  2
LiberationSerif
 70
0
 40
0.0
 41
1.0
 50
0.0
 71
0
 42
2.5
  3
LiberationSerif-Regular.ttf
  4

  0
STYLE
  5
53
330
5
100
AcDbSymbolTableRecord
100
AcDbTextStyleTableRecord
  2
LiberationSerif-Bold
 70
0
 40
0.0
 41
1.0
 50
0.0
 71
0
 42
2.5
  3
LiberationSerif-Bold.ttf
  4

  0
STYLE
  5
54
330
5
100
AcDbSymbolTableRecord
100
AcDbTextStyleTableRecord
  2
LiberationSerif-BoldItalic
 70
0
 40
0.0
 41
1.0
 50
0.0
 71
0
 42
2.5
  3
LiberationSerif-BoldItalic.ttf
  4

  0
STYLE
  5
55
330
5
100
AcDbSymbolTableRecord
100
AcDbTextStyleTableRecord
  2
LiberationSerif-Italic
 70
0
 40
0.0
 41
1.0
 50
0.0
 71
0
 42
2.5
  3
LiberationSerif-Italic.ttf
  4

  0
STYLE
  5
56
330
5
100
AcDbSymbolTableRecord
100
AcDbTextStyleTableRecord
  2
LiberationMono
 70
0
 40
0.0
 41
1.0
 50
0.0
 71
0
 42
2.5
  3
LiberationMono-Regular.ttf
  4

  0
STYLE
  5
57
330
5
100
AcDbSymbolTableRecord
100
AcDbTextStyleTableRecord
  2
LiberationMono-Bold
 70
0
 40
0.0
 41
1.0
 50
0.0
 71
0
 42
2.5
  3
LiberationMono-Bold.ttf
  4

  0
STYLE
  5
58
330
5
100
AcDbSymbolTableRecord
100
AcDbTextStyleTableRecord
  2
LiberationMono-BoldItalic
 70
0
 40
0.0
 41
1.0
 50
0.0
 71
0
 42
2.5
  3
LiberationMono-BoldItalic.ttf
  4

  0
STYLE
  5
59
330
5
100
AcDbSymbolTableRecord
100
AcDbTextStyleTableRecord
  2
LiberationMono-Italic
 70
0
 40
0.0
 41
1.0
 50
0.0
 71
0
 42
2.5
  3
LiberationMono-Italic.ttf
  4

  0
STYLE
  5
93
330
5
100
AcDbSymbolTableRecord
100
AcDbTextStyleTableRecord
  2
CN
 70
0
 40
0.0
 41
1.0
 50
0.0
 71
0
 42
2.5
  3
msyh.ttc
  4

1001
ACAD
1000
Microsoft YaHei
1071
34
  0
ENDTAB
  0
TABLE
  2
VIEW
  5
7
330
0
100
AcDbSymbolTable
 70
0
  0
ENDTAB
  0
TABLE
  2
UCS
  5
6
330
0
100
AcDbSymbolTable
 70
0
  0
ENDTAB
  0
TABLE
  2
APPID
  5
3
330
0
100
AcDbSymbolTable
 70
3
  0
APPID
  5
2A
330
3
100
AcDbSymbolTableRecord
100
AcDbRegAppTableRecord
  2
ACAD
 70
0
  0
APPID
  5
241
330
3
100
AcDbSymbolTableRecord
100
AcDbRegAppTableRecord
  2
HATCHBACKGROUNDCOLOR
 70
0
  0
APPID
  5
242
330
3
100
AcDbSymbolTableRecord
100
AcDbRegAppTableRecord
  2
EZDXF
 70
0
  0
ENDTAB
  0
TABLE
  2
DIMSTYLE
  5
4
330
0
100
AcDbSymbolTable
 70
12
100
AcDbDimStyleTable
  0
DIMSTYLE
105
2B
330
4
100
AcDbSymbolTableRecord
100
AcDbDimStyleTableRecord
  2
Standard
 70
0
 40
1.0
 41
2.5
 42
0.625
 43
3.75
 44
1.25
 45
0.0
 46
0.0
 47
0.0
 48
0.0
 49
2.5
140
2.5
141
2.5
142
0.0
143
0.03937007874
144
1.0
145
0.0
146
1.0
147
0.625
148
0.0
 69
0
 70
0
 71
0
 72
0
 73
0
 74
0
 75
0
 76
0
 77
1
 78
8
 79
3
170
0
171
3
172
1
173
0
174
0
175
0
176
0
177
0
178
0
179
2
271
2
272
2
273
2
274
3
275
0
276
0
277
2
278
44
279
0
280
0
281
0
282
0
283
0
284
8
285
0
286
0
288
0
289
3
290
0
371
-2
372
-2
  0
DIMSTYLE
105
73
330
4
100
AcDbSymbolTableRecord
100
AcDbDimStyleTableRecord
  2
EZDXF
 70
0
 40
1.0
 41
0.175
 42
0.125
 43
3.75
 44
0.375
 45
0.0
 46
0.0
 47
0.0
 48
0.0
 49
2.5
140
0.25
141
2.5
142
0.0
143
0.03937007874
144
100.0
145
0.0
146
0.5
147
0.1
148
0.0
 69
0
 70
0
 71
0
 72
0
 73
0
 74
0
 75
0
 76
0
 77
1
 78
12
 79
3
170
0
171
3
172
1
173
0
174
0
175
0
176
0
177
0
178
0
179
2
271
2
272
2
273
2
274
3
275
0
276
0
277
2
278
46
279
2
280
0
281
0
282
0
283
0
284
8
285
0
286
0
288
1
289
3
290
0
340
4C
342
74
371
-2
372
-2
  0
DIMSTYLE
105
7C
330
4
100
AcDbSymbolTableRecord
100
AcDbDimStyleTableRecord
  2
EZ_M_100_H25_CM
 70
0
 40
1.0
 41
0.25
 42
0.125
 43
3.75
 44
0.375
 45
0.0
 46
0.0
 47
0.0
 48
0.0
 49
2.5
140
0.25
141
2.5
142
0.125
143
0.03937007874
144
100.0
145
0.0
146
0.5
147
0.1
148
0.0
 69
0
 70
0
 71
0
 72
0
 73
0
 74
0
 75
0
 76
0
 77
1
 78
12
 79
3
170
0
171
3
172
1
173
0
174
0
175
0
176
0
177
0
178
0
179
2
271
2
272
2
273
2
274
3
275
0
276
0
277
2
278
46
279
2
280
0
281
0
282
0
283
0
284
8
285
0
286
0
288
1
289
3
290
0
340
4C
371
-2
372
-2
  0
DIMSTYLE
105
7D
330
4
100
AcDbSymbolTableRecord
100
AcDbDimStyleTableRecord
  2
EZ_M_50_H25_CM
 70
0
 40
1.0
 41
0.125
 42
0.0625
 43
3.75
 44
0.1875
 45
0.0
 46
0.0
 47
0.0
 48
0.0
 49
2.5
140
0.125
141
2.5
142
0.0625
143
0.03937007874
144
100.0
145
0.0
146
0.5
147
0.05
148
0.0
 69
0
 70
0
 71
0
 72
0
 73
0
 74
0
 75
0
 76
0
 77
1
 78
12
 79
3
170
0
171
3
172
1
173
0
174
0
175
0
176
0
177
0
178
0
179
2
271
2
272
2
273
2
274
3
275
0
276
0
277
2
278
46
279
2
280
0
281
0
282
0
283
0
284
8
285
0
286
0
288
1
289
3
290
0
340
4C
371
-2
372
-2
  0
DIMSTYLE
105
7E
330
4
100
AcDbSymbolTableRecord
100
AcDbDimStyleTableRecord
  2
EZ_M_25_H25_CM
 70
0
 40
1.0
 41
0.0625
 42
0.03125
 43
3.75
 44
0.09375
 45
0.0
 46
0.0
 47
0.0
 48
0.0
 49
2.5
140
0.0625
141
2.5
142
0.03125
143
0.03937007874
144
100.0
145
0.0
146
0.5
147
0.025
148
0.0
 69
0
 70
0
 71
0
 72
0
 73
0
 74
0
 75
0
 76
0
 77
1
 78
12
 79
3
170
0
171
3
172
1
173
0
174
0
175
0
176
0
177
0
178
0
179
2
271
2
272
2
273
2
274
3
275
0
276
0
277
2
278
46
279
2
280
0
281
0
282
0
283
0
284
8
285
0
286
0
288
1
289
3
290
0
340
4C
371
-2
372
-2
  0
DIMSTYLE
105
7F
330
4
100
AcDbSymbolTableRecord
100
AcDbDimStyleTableRecord
  2
EZ_M_20_H25_CM
 70
0
 40
1.0
 41
0.05
 42
0.025
 43
3.75
 44
0.07500000000000001
 45
0.0
 46
0.0
 47
0.0
 48
0.0
 49
2.5
140
0.05
141
2.5
142
0.025
143
0.03937007874
144
100.0
145
0.0
146
0.5
147
0.020000000000000004
148
0.0
 69
0
 70
0
 71
0
 72
0
 73
0
 74
0
 75
0
 76
0
 77
1
 78
12
 79
3
170
0
171
3
172
1
173
0
174
0
175
0
176
0
177
0
178
0
179
2
271
2
272
2
273
2
274
3
275
0
276
0
277
2
278
46
279
2
280
0
281
0
282
0
283
0
284
8
285
0
286
0
288
1
289
3
290
0
340
4C
371
-2
372
-2
  0
DIMSTYLE
105
80
330
4
100
AcDbSymbolTableRecord
100
AcDbDimStyleTableRecord
  2
EZ_M_10_H25_CM
 70
0
 40
1.0
 41
0.025
 42
0.0125
 43
3.75
 44
0.037500000000000006
 45
0.0
 46
0.0
 47
0.0
 48
0.0
 49
2.5
140
0.025
141
2.5
142
0.0125
143
0.03937007874
144
100.0
145
0.0
146
0.5
147
0.010000000000000002
148
0.0
 69
0
 70
0
 71
0
 72
0
 73
0
 74
0
 75
0
 76
0
 77
1
 78
12
 79
3
170
0
171
3
172
1
173
0
174
0
175
0
176
0
177
0
178
0
179
2
271
2
272
2
273
2
274
3
275
0
276
0
277
2
278
46
279
2
280
0
281
0
282
0
283
0
284
8
285
0
286
0
288
1
289
3
290
0
340
4C
371
-2
372
-2
  0
DIMSTYLE
105
81
330
4
100
AcDbSymbolTableRecord
100
AcDbDimStyleTableRecord
  2
EZ_M_5_H25_CM
 70
0
 40
1.0
 41
0.0125
 42
0.00625
 43
3.75
 44
0.018750000000000003
 45
0.0
 46
0.0
 47
0.0
 48
0.0
 49
2.5
140
0.0125
141
2.5
142
0.00625
143
0.03937007874
144
100.0
145
0.0
146
0.5
147
0.005000000000000001
148
0.0
 69
0
 70
0
 71
0
 72
0
 73
0
 74
0
 75
0
 76
0
 77
1
 78
12
 79
3
170
0
171
3
172
1
173
0
174
0
175
0
176
0
177
0
178
0
179
2
271
2
272
2
273
2
274
3
275
0
276
0
277
2
278
46
279
2
280
0
281
0
282
0
283
0
284
8
285
0
286
0
288
1
289
3
290
0
340
4C
371
-2
372
-2
  0
DIMSTYLE
105
82
330
4
100
AcDbSymbolTableRecord
100
AcDbDimStyleTableRecord
  2
EZ_M_1_H25_CM
 70
0
 40
1.0
 41
0.0025
 42
0.00125
 43
3.75
 44
0.00375
 45
0.0
 46
0.0
 47
0.0
 48
0.0
 49
2.5
140
0.0025
141
2.5
142
0.00125
143
0.03937007874
144
100.0
145
0.0
146
0.5
147
0.001
148
0.0
 69
0
 70
0
 71
0
 72
0
 73
0
 74
0
 75
0
 76
0
 77
1
 78
12
 79
3
170
0
171
3
172
1
173
0
174
0
175
0
176
0
177
0
178
0
179
2
271
2
272
2
273
2
274
3
275
0
276
0
277
2
278
46
279
2
280
0
281
0
282
0
283
0
284
8
285
0
286
0
288
1
289
3
290
0
340
4C
371
-2
372
-2
  0
DIMSTYLE
105
83
330
4
100
AcDbSymbolTableRecord
100
AcDbDimStyleTableRecord
  2
EZ_RADIUS
 70
0
 40
1.0
 41
0.25
 42
0.125
 43
3.75
 44
0.375
 45
0.0
 46
0.0
 47
0.0
 48
0.0
 49
2.5
140
0.25
141
0.0
142
0.0
143
0.03937007874
144
100.0
145
0.0
146
0.5
147
0.1
148
0.0
 69
0
 70
0
 71
0
 72
0
 73
0
 74
0
 75
0
 76
0
 77
1
 78
12
 79
3
170
0
171
3
172
0
173
0
174
0
175
0
176
0
177
0
178
0
179
2
271
2
272
2
273
2
274
3
275
0
276
0
277
2
278
46
279
1
280
0
281
0
282
0
283
0
284
8
285
0
286
0
288
1
289
3
290
0
340
4C
342
84
371
-2
372
-2
  0
DIMSTYLE
105
88
330
4
100
AcDbSymbolTableRecord
100
AcDbDimStyleTableRecord
  2
EZ_RADIUS_INSIDE
 70
0
 40
1.0
 41
0.25
 42
0.125
 43
3.75
 44
0.375
 45
0.0
 46
0.0
 47
0.0
 48
0.0
 49
2.5
140
0.25
141
0.0
142
0.0
143
0.03937007874
144
100.0
145
0.0
146
0.5
147
0.1
148
0.0
 69
0
 70
0
 71
0
 72
0
 73
0
 74
0
 75
0
 76
0
 77
0
 78
12
 79
3
170
0
171
3
172
0
173
0
174
1
175
0
176
0
177
0
178
0
179
2
271
2
272
2
273
2
274
3
275
0
276
0
277
2
278
46
279
0
280
0
281
0
282
0
283
0
284
8
285
0
286
0
288
1
289
0
290
0
340
4C
342
84
371
-2
372
-2
  0
DIMSTYLE
105
89
330
4
100
AcDbSymbolTableRecord
100
AcDbDimStyleTableRecord
  2
EZ_CURVED
 70
0
 40
1.0
 41
0.25
 42
0.125
 43
3.75
 44
0.375
 45
0.0
 46
0.0
 47
0.0
 48
0.0
 49
2.5
140
0.25
141
2.5
142
0.0
143
0.03937007874
144
100.0
145
0.0
146
0.5
147
0.1
148
0.0
 69
0
 70
0
 71
0
 72
0
 73
0
 74
0
 75
0
 76
0
 77
1
 78
12
 79
2
 90
2
170
0
171
3
172
1
173
0
174
0
175
0
176
0
177
0
178
0
179
2
271
2
272
2
273
2
274
3
275
0
276
0
277
2
278
46
279
2
280
0
281
0
282
0
283
0
284
8
285
0
286
0
288
1
289
3
290
0
340
4C
371
-2
372
-2
  0
ENDTAB
  0
TABLE
  2
BLOCK_RECORD
  5
9
330
0
100
AcDbSymbolTable
 70
5
  0
BLOCK_RECORD
  5
17
330
9
100
AcDbSymbolTableRecord
100
AcDbBlockTableRecord
  2
*Model_Space
340
1A
 70
0
280
1
281
0
  0
BLOCK_RECORD
  5
1B
330
9
100
AcDbSymbolTableRecord
100
AcDbBlockTableRecord
  2
*Paper_Space
340
1E
 70
0
280
1
281
0
  0
BLOCK_RECORD
  5
74
330
9
100
AcDbSymbolTableRecord
100
AcDbBlockTableRecord
  2
_ARCHTICK
340
0
 70
0
280
1
281
0
  0
BLOCK_RECORD
  5
78
330
9
100
AcDbSymbolTableRecord
100
AcDbBlockTableRecord
  2
_CLOSEDFILLED
340
0
 70
0
280
1
281
0
  0
BLOCK_RECORD
  5
84
330
9
100
AcDbSymbolTableRecord
100
AcDbBlockTableRecord
  2
_CLOSEDBLANK
340
0
 70
0
280
1
281
0
  0
ENDTAB
  0
ENDSEC
  0
SECTION
  2
BLOCKS
  0
BLOCK
  5
18
330
17
100
AcDbEntity
  8
0
100
AcDbBlockBegin
  2
*Model_Space
 70
0
 10
0.0
 20
0.0
 30
0.0
  3
*Model_Space
  1

  0
ENDBLK
  5
19
330
17
100
AcDbEntity
  8
0
100
AcDbBlockEnd
  0
BLOCK
  5
1C
330
1B
100
AcDbEntity
  8
0
100
AcDbBlockBegin
  2
*Paper_Space
 70
0
 10
0.0
 20
0.0
 30
0.0
  3
*Paper_Space
  1

  0
ENDBLK
  5
1D
330
1B
100
AcDbEntity
  8
0
100
AcDbBlockEnd
  0
BLOCK
  5
75
330
74
100
AcDbEntity
  8
0
100
AcDbBlockBegin
  2
_ARCHTICK
 70
0
 10
0.0
 20
0.0
 30
0.0
  3
_ARCHTICK
  1

  0
LWPOLYLINE
  5
77
330
74
100
AcDbEntity
  8
0
  6
BYBLOCK
 62
0
100
AcDbPolyline
 90
2
 70
0
 43
0.15
 10
-0.5
 20
-0.5
 10
0.5
 20
0.5
  0
ENDBLK
  5
76
330
74
100
AcDbEntity
  8
0
100
AcDbBlockEnd
  0
BLOCK
  5
79
330
78
100
AcDbEntity
  8
0
100
AcDbBlockBegin
  2
_CLOSEDFILLED
 70
0
 10
0.0
 20
0.0
 30
0.0
  3
_CLOSEDFILLED
  1

  0
SOLID
  5
7B
330
78
100
AcDbEntity
  8
0
  6
BYBLOCK
 62
0
100
AcDbTrace
 10
-1.0
 20
0.16439898372402537
 30
0.0
 11
0.0
 21
0.0
 31
0.0
 12
-1.0
 22
-0.16439898372402537
 32
0.0
 13
-1.0
 23
-0.16439898372402537
 33
0.0
  0
ENDBLK
  5
7A
330
78
100
AcDbEntity
  8
0
100
AcDbBlockEnd
  0
BLOCK
  5
85
330
84
100
AcDbEntity
  8
0
100
AcDbBlockBegin
  2
_CLOSEDBLANK
 70
0
 10
0.0
 20
0.0
 30
0.0
  3
_CLOSEDBLANK
  1

  0
LWPOLYLINE
  5
87
330
84
100
AcDbEntity
  8
0
  6
BYBLOCK
 62
0
100
AcDbPolyline
 90
3
 70
1
 10
-1.0
 20
0.16439898372402537
 10
0.0
 20
0.0
 10
-1.0
 20
-0.16439898372402537
  0
ENDBLK
  5
86
330
84
100
AcDbEntity
  8
0
100
AcDbBlockEnd
  0
ENDSEC
  0
SECTION
  2
ENTITIES
  0
LWPOLYLINE
  5
94
330
17
100
AcDbEntity
  8
REF-WALL
100
AcDbPolyline
 90
4
 70
1
 10
-200.0
 20
0.0
 10
8800.0
 20
0.0
 10
8800.0
 20
16200.0
 10
-200.0
 20
16200.0
  0
TEXT
  5
95
330
17
100
AcDbEntity
  8
TEXT
100
AcDbText
 10
4300.0
 20
15910.0
 30
0.0
 40
95.0
  1
参数化生产剖面 CAD 概念验证
  7
CN
 72
1
 11
4300.0
 21
15910.0
 31
0.0
100
AcDbText
 73
2
  0
TEXT
  5
96
330
17
100
AcDbEntity
  8
CUT
100
AcDbText
 10
4300.0
 20
15780.0
 30
0.0
 40
62.0
  1
概念验证，非生产依据
  7
CN
 72
1
 11
4300.0
 21
15780.0
 31
0.0
100
AcDbText
 73
2
  0
TEXT
  5
97
330
17
100
AcDbEntity
  8
TEXT
100
AcDbText
 10
4300.0
 20
15680.0
 30
0.0
 40
34.0
  1
单位：mm  |  样例：单门合页边  |  版本：PROOF-V1
  7
CN
 72
1
 11
4300.0
 21
15680.0
 31
0.0
100
AcDbText
 73
2
  0
LWPOLYLINE
  5
98
330
17
100
AcDbEntity
  8
REF-WALL
100
AcDbPolyline
 90
4
 70
1
 10
150.0
 20
13350.0
 10
4250.0
 20
13350.0
 10
4250.0
 20
15400.0
 10
150.0
 20
15400.0
  0
TEXT
  5
99
330
17
100
AcDbEntity
  8
TEXT
100
AcDbText
 10
2200.0
 20
15290.0
 30
0.0
 40
55.0
  1
A. 总装水平剖面图
  7
CN
 72
1
 11
2200.0
 21
15290.0
 31
0.0
100
AcDbText
 73
2
  0
LWPOLYLINE
  5
9A
330
17
100
AcDbEntity
  8
REF-WALL
100
AcDbPolyline
 90
4
 70
1
 10
500.0
 20
13700.0
 10
700.0
 20
13700.0
 10
700.0
 20
14750.0
 10
500.0
 20
14750.0
  0
LINE
  5
9B
330
17
100
AcDbEntity
  8
REF-WALL
100
AcDbLine
 10
500.0
 20
13750.0
 30
0.0
 11
700.0
 21
13820.0
 31
0.0
  0
LINE
  5
9C
330
17
100
AcDbEntity
  8
REF-WALL
100
AcDbLine
 10
500.0
 20
13840.0
 30
0.0
 11
700.0
 21
13910.0
 31
0.0
  0
LINE
  5
9D
330
17
100
AcDbEntity
  8
REF-WALL
100
AcDbLine
 10
500.0
 20
13930.0
 30
0.0
 11
700.0
 21
14000.0
 31
0.0
  0
LINE
  5
9E
330
17
100
AcDbEntity
  8
REF-WALL
100
AcDbLine
 10
500.0
 20
14020.0
 30
0.0
 11
700.0
 21
14090.0
 31
0.0
  0
LINE
  5
9F
330
17
100
AcDbEntity
  8
REF-WALL
100
AcDbLine
 10
500.0
 20
14110.0
 30
0.0
 11
700.0
 21
14180.0
 31
0.0
  0
LINE
  5
A0
330
17
100
AcDbEntity
  8
REF-WALL
100
AcDbLine
 10
500.0
 20
14200.0
 30
0.0
 11
700.0
 21
14270.0
 31
0.0
  0
LINE
  5
A1
330
17
100
AcDbEntity
  8
REF-WALL
100
AcDbLine
 10
500.0
 20
14290.0
 30
0.0
 11
700.0
 21
14360.0
 31
0.0
  0
LINE
  5
A2
330
17
100
AcDbEntity
  8
REF-WALL
100
AcDbLine
 10
500.0
 20
14380.0
 30
0.0
 11
700.0
 21
14450.0
 31
0.0
  0
LINE
  5
A3
330
17
100
AcDbEntity
  8
REF-WALL
100
AcDbLine
 10
500.0
 20
14470.0
 30
0.0
 11
700.0
 21
14540.0
 31
0.0
  0
LINE
  5
A4
330
17
100
AcDbEntity
  8
REF-WALL
100
AcDbLine
 10
500.0
 20
14560.0
 30
0.0
 11
700.0
 21
14630.0
 31
0.0
  0
LINE
  5
A5
330
17
100
AcDbEntity
  8
REF-WALL
100
AcDbLine
 10
500.0
 20
14650.0
 30
0.0
 11
700.0
 21
14720.0
 31
0.0
  0
LINE
  5
A6
330
17
100
AcDbEntity
  8
REF-WALL
100
AcDbLine
 10
500.0
 20
14740.0
 30
0.0
 11
700.0
 21
14810.0
 31
0.0
  0
TEXT
  5
A7
330
17
100
AcDbEntity
  8
TEXT
100
AcDbText
 10
600.0
 20
14830.0
 30
0.0
 40
30.0
  1
墙体 200
  7
CN
 72
1
 11
600.0
 21
14830.0
 31
0.0
100
AcDbText
 73
2
  0
LWPOLYLINE
  5
A8
330
17
100
AcDbEntity
  8
SKIN
100
AcDbPolyline
 90
4
 70
0
 10
420.0
 20
14775.0
 10
420.0
 20
14750.0
 10
500.0
 20
14750.0
 10
500.0
 20
14725.0
  0
LWPOLYLINE
  5
A9
330
17
100
AcDbEntity
  8
SKELETON
100
AcDbPolyline
 90
4
 70
1
 10
455.0
 20
14695.0
 10
495.0
 20
14695.0
 10
495.0
 20
14725.0
 10
455.0
 20
14725.0
  0
TEXT
  5
AA
330
17
100
AcDbEntity
  8
TEXT
100
AcDbText
 10
490.0
 20
14940.0
 30
0.0
 40
28.0
  1
门套外皮 + 折弯骨架
  7
CN
 72
1
 11
490.0
 21
14940.0
 31
0.0
100
AcDbText
 73
2
  0
LWPOLYLINE
  5
AB
330
17
100
AcDbEntity
  8
SKIN
100
AcDbPolyline
 90
4
 70
0
 10
535.0
 20
14790.0
 10
585.0
 20
14790.0
 10
585.0
 20
14910.0
 10
610.0
 20
14910.0
  0
LWPOLYLINE
  5
AC
330
17
100
AcDbEntity
  8
SKELETON
100
AcDbPolyline
 90
4
 70
1
 10
543.0
 20
14808.0
 10
578.0
 20
14808.0
 10
578.0
 20
14858.0
 10
543.0
 20
14858.0
  0
TEXT
  5
AD
330
17
100
AcDbEntity
  8
TEXT
100
AcDbText
 10
600.0
 20
15040.0
 30
0.0
 40
28.0
  1
门框外皮 + 折弯骨架
  7
CN
 72
1
 11
600.0
 21
15040.0
 31
0.0
100
AcDbText
 73
2
  0
LINE
  5
AE
330
17
100
AcDbEntity
  8
SKIN
100
AcDbLine
 10
589.0
 20
14914.0
 30
0.0
 11
589.0
 21
15394.0
 31
0.0
  0
LINE
  5
AF
330
17
100
AcDbEntity
  8
SKIN
100
AcDbLine
 10
659.0
 20
14914.0
 30
0.0
 11
659.0
 21
15394.0
 31
0.0
  0
LINE
  5
B0
330
17
100
AcDbEntity
  8
SKIN
100
AcDbLine
 10
589.0
 20
15394.0
 30
0.0
 11
659.0
 21
15394.0
 31
0.0
  0
LWPOLYLINE
  5
B1
330
17
100
AcDbEntity
  8
SKELETON
100
AcDbPolyline
 90
4
 70
1
 10
609.0
 20
14936.0
 10
649.0
 20
14936.0
 10
649.0
 20
14966.0
 10
609.0
 20
14966.0
  0
TEXT
  5
B2
330
17
100
AcDbEntity
  8
TEXT
100
AcDbText
 10
624.0
 20
15494.0
 30
0.0
 40
28.0
  1
门扇双外皮 + 40x30x1.5 方管
  7
CN
 72
1
 11
624.0
 21
15494.0
 31
0.0
100
AcDbText
 73
2
  0
LINE
  5
B3
330
17
100
AcDbEntity
  8
CUT
100
AcDbLine
 10
575.0
 20
14908.0
 30
0.0
 11
634.0
 21
14924.0
 31
0.0
  0
TEXT
  5
B4
330
17
100
AcDbEntity
  8
CUT
100
AcDbText
 10
915.0
 20
14885.0
 30
0.0
 40
28.0
  1
HINGE-01 联动开孔（剖面示意）
  7
CN
 11
915.0
 21
14885.0
 31
0.0
100
AcDbText
 73
2
  0
LINE
  5
B5
330
17
100
AcDbEntity
  8
DIM
100
AcDbLine
 10
500.0
 20
13700.0
 30
0.0
 11
500.0
 21
13590.0
 31
0.0
  0
LINE
  5
B6
330
17
100
AcDbEntity
  8
DIM
100
AcDbLine
 10
700.0
 20
13700.0
 30
0.0
 11
700.0
 21
13590.0
 31
0.0
  0
LINE
  5
B7
330
17
100
AcDbEntity
  8
DIM
100
AcDbLine
 10
500.0
 20
13590.0
 30
0.0
 11
700.0
 21
13590.0
 31
0.0
  0
LINE
  5
B8
330
17
100
AcDbEntity
  8
DIM
100
AcDbLine
 10
488.0
 20
13578.0
 30
0.0
 11
512.0
 21
13602.0
 31
0.0
  0
LINE
  5
B9
330
17
100
AcDbEntity
  8
DIM
100
AcDbLine
 10
688.0
 20
13578.0
 30
0.0
 11
712.0
 21
13602.0
 31
0.0
  0
TEXT
  5
BA
330
17
100
AcDbEntity
  8
DIM
100
AcDbText
 10
600.0
 20
13562.0
 30
0.0
 40
25.0
  1
墙厚 200
  7
CN
 72
1
 11
600.0
 21
13562.0
 31
0.0
100
AcDbText
 73
2
  0
LINE
  5
BB
330
17
100
AcDbEntity
  8
DIM
100
AcDbLine
 10
589.0
 20
15394.0
 30
0.0
 11
589.0
 21
15504.0
 31
0.0
  0
LINE
  5
BC
330
17
100
AcDbEntity
  8
DIM
100
AcDbLine
 10
659.0
 20
15394.0
 30
0.0
 11
659.0
 21
15504.0
 31
0.0
  0
LINE
  5
BD
330
17
100
AcDbEntity
  8
DIM
100
AcDbLine
 10
589.0
 20
15504.0
 30
0.0
 11
659.0
 21
15504.0
 31
0.0
  0
LINE
  5
BE
330
17
100
AcDbEntity
  8
DIM
100
AcDbLine
 10
577.0
 20
15492.0
 30
0.0
 11
601.0
 21
15516.0
 31
0.0
  0
LINE
  5
BF
330
17
100
AcDbEntity
  8
DIM
100
AcDbLine
 10
647.0
 20
15492.0
 30
0.0
 11
671.0
 21
15516.0
 31
0.0
  0
TEXT
  5
C0
330
17
100
AcDbEntity
  8
DIM
100
AcDbText
 10
624.0
 20
15532.0
 30
0.0
 40
25.0
  1
门扇厚 70
  7
CN
 72
1
 11
624.0
 21
15532.0
 31
0.0
100
AcDbText
 73
2
  0
LINE
  5
C1
330
17
100
AcDbEntity
  8
DIM
100
AcDbLine
 10
585.0
 20
14910.0
 30
0.0
 11
585.0
 21
14995.0
 31
0.0
  0
LINE
  5
C2
330
17
100
AcDbEntity
  8
DIM
100
AcDbLine
 10
589.0
 20
14910.0
 30
0.0
 11
589.0
 21
14995.0
 31
0.0
  0
LINE
  5
C3
330
17
100
AcDbEntity
  8
DIM
100
AcDbLine
 10
585.0
 20
14995.0
 30
0.0
 11
589.0
 21
14995.0
 31
0.0
  0
LINE
  5
C4
330
17
100
AcDbEntity
  8
DIM
100
AcDbLine
 10
573.0
 20
14983.0
 30
0.0
 11
597.0
 21
15007.0
 31
0.0
  0
LINE
  5
C5
330
17
100
AcDbEntity
  8
DIM
100
AcDbLine
 10
577.0
 20
14983.0
 30
0.0
 11
601.0
 21
15007.0
 31
0.0
  0
TEXT
  5
C6
330
17
100
AcDbEntity
  8
DIM
100
AcDbText
 10
587.0
 20
15023.0
 30
0.0
 40
25.0
  1
间隙 4
  7
CN
 72
1
 11
587.0
 21
15023.0
 31
0.0
100
AcDbText
 73
2
  0
LINE
  5
C7
330
17
100
AcDbEntity
  8
SKIN
100
AcDbLine
 10
2050.0
 20
14730.0
 30
0.0
 11
2230.0
 21
14730.0
 31
0.0
  0
TEXT
  5
C8
330
17
100
AcDbEntity
  8
TEXT
100
AcDbText
 10
2280.0
 20
14730.0
 30
0.0
 40
26.0
  1
外皮
  7
CN
 11
2280.0
 21
14730.0
 31
0.0
100
AcDbText
 73
2
  0
LINE
  5
C9
330
17
100
AcDbEntity
  8
SKELETON
100
AcDbLine
 10
2050.0
 20
14625.0
 30
0.0
 11
2230.0
 21
14625.0
 31
0.0
  0
TEXT
  5
CA
330
17
100
AcDbEntity
  8
TEXT
100
AcDbText
 10
2280.0
 20
14625.0
 30
0.0
 40
26.0
  1
内骨架
  7
CN
 11
2280.0
 21
14625.0
 31
0.0
100
AcDbText
 73
2
  0
LINE
  5
CB
330
17
100
AcDbEntity
  8
CUT
100
AcDbLine
 10
2050.0
 20
14520.0
 30
0.0
 11
2230.0
 21
14520.0
 31
0.0
  0
TEXT
  5
CC
330
17
100
AcDbEntity
  8
TEXT
100
AcDbText
 10
2280.0
 20
14520.0
 30
0.0
 40
26.0
  1
切割 / 开孔
  7
CN
 11
2280.0
 21
14520.0
 31
0.0
100
AcDbText
 73
2
  0
LINE
  5
CD
330
17
100
AcDbEntity
  8
BEND
100
AcDbLine
 10
2050.0
 20
14415.0
 30
0.0
 11
2230.0
 21
14415.0
 31
0.0
  0
TEXT
  5
CE
330
17
100
AcDbEntity
  8
TEXT
100
AcDbText
 10
2280.0
 20
14415.0
 30
0.0
 40
26.0
  1
折弯线
  7
CN
 11
2280.0
 21
14415.0
 31
0.0
100
AcDbText
 73
2
  0
LINE
  5
CF
330
17
100
AcDbEntity
  8
WELD
100
AcDbLine
 10
2050.0
 20
14310.0
 30
0.0
 11
2230.0
 21
14310.0
 31
0.0
  0
TEXT
  5
D0
330
17
100
AcDbEntity
  8
TEXT
100
AcDbText
 10
2280.0
 20
14310.0
 30
0.0
 40
26.0
  1
焊接
  7
CN
 11
2280.0
 21
14310.0
 31
0.0
100
AcDbText
 73
2
  0
LINE
  5
D1
330
17
100
AcDbEntity
  8
CENTER
100
AcDbLine
 10
2050.0
 20
14205.0
 30
0.0
 11
2230.0
 21
14205.0
 31
0.0
  0
TEXT
  5
D2
330
17
100
AcDbEntity
  8
TEXT
100
AcDbText
 10
2280.0
 20
14205.0
 30
0.0
 40
26.0
  1
中心 / 对齐基准
  7
CN
 11
2280.0
 21
14205.0
 31
0.0
100
AcDbText
 73
2
  0
LWPOLYLINE
  5
D3
330
17
100
AcDbEntity
  8
REF-WALL
100
AcDbPolyline
 90
4
 70
1
 10
4450.0
 20
13350.0
 10
8650.0
 20
13350.0
 10
8650.0
 20
15400.0
 10
4450.0
 20
15400.0
  0
TEXT
  5
D4
330
17
100
AcDbEntity
  8
TEXT
100
AcDbText
 10
6550.0
 20
15290.0
 30
0.0
 40
55.0
  1
B. 演示参数表
  7
CN
 72
1
 11
6550.0
 21
15290.0
 31
0.0
100
AcDbText
 73
2
  0
TEXT
  5
D5
330
17
100
AcDbEntity
  8
TEXT
100
AcDbText
 10
4630.0
 20
15090.0
 30
0.0
 40
30.0
  1
墙厚 / 成品高 / 门扇厚：200 / 2100 / 70
  7
CN
 11
4630.0
 21
15090.0
 31
0.0
100
AcDbText
 73
2
  0
TEXT
  5
D6
330
17
100
AcDbEntity
  8
TEXT
100
AcDbText
 10
4630.0
 20
14935.0
 30
0.0
 40
30.0
  1
门套外皮 / 折弯骨架：t1.2 / t1.5
  7
CN
 11
4630.0
 21
14935.0
 31
0.0
100
AcDbText
 73
2
  0
TEXT
  5
D7
330
17
100
AcDbEntity
  8
TEXT
100
AcDbText
 10
4630.0
 20
14780.0
 30
0.0
 40
30.0
  1
门框外皮 / 折弯骨架：t1.5 / t2.0
  7
CN
 11
4630.0
 21
14780.0
 31
0.0
100
AcDbText
 73
2
  0
TEXT
  5
D8
330
17
100
AcDbEntity
  8
TEXT
100
AcDbText
 10
4630.0
 20
14625.0
 30
0.0
 40
30.0
  1
门扇正反外皮：t1.0
  7
CN
 11
4630.0
 21
14625.0
 31
0.0
100
AcDbText
 73
2
  0
TEXT
  5
D9
330
17
100
AcDbEntity
  8
TEXT
100
AcDbText
 10
4630.0
 20
14470.0
 30
0.0
 40
30.0
  1
门扇合页边方管：40 x 30 x 1.5
  7
CN
 11
4630.0
 21
14470.0
 31
0.0
100
AcDbText
 73
2
  0
TEXT
  5
DA
330
17
100
AcDbEntity
  8
TEXT
100
AcDbText
 10
4630.0
 20
14315.0
 30
0.0
 40
30.0
  1
装配间隙：4
  7
CN
 11
4630.0
 21
14315.0
 31
0.0
100
AcDbText
 73
2
  0
TEXT
  5
DB
330
17
100
AcDbEntity
  8
TEXT
100
AcDbText
 10
4630.0
 20
14160.0
 30
0.0
 40
30.0
  1
HINGE-01 孔型：30 x 100
  7
CN
 11
4630.0
 21
14160.0
 31
0.0
100
AcDbText
 73
2
  0
TEXT
  5
DC
330
17
100
AcDbEntity
  8
TEXT
100
AcDbText
 10
4630.0
 20
14005.0
 30
0.0
 40
30.0
  1
孔中心高度：250 / 1050 / 1850
  7
CN
 11
4630.0
 21
14005.0
 31
0.0
100
AcDbText
 73
2
  0
TEXT
  5
DD
330
17
100
AcDbEntity
  8
TEXT
100
AcDbText
 10
4630.0
 20
13850.0
 30
0.0
 40
30.0
  1
定位基准：零件下端 + 合页边
  7
CN
 11
4630.0
 21
13850.0
 31
0.0
100
AcDbText
 73
2
  0
TEXT
  5
DE
330
17
100
AcDbEntity
  8
CUT
100
AcDbText
 10
4630.0
 20
13695.0
 30
0.0
 40
30.0
  1
说明：全部尺寸仅为概念验证，尚未形成厂规
  7
CN
 11
4630.0
 21
13695.0
 31
0.0
100
AcDbText
 73
2
  0
LWPOLYLINE
  5
DF
330
17
100
AcDbEntity
  8
REF-WALL
100
AcDbPolyline
 90
4
 70
1
 10
0.0
 20
10500.0
 10
4200.0
 20
10500.0
 10
4200.0
 20
13000.0
 10
0.0
 20
13000.0
  0
TEXT
  5
E0
330
17
100
AcDbEntity
  8
TEXT
100
AcDbText
 10
2100.0
 20
12905.0
 30
0.0
 40
44.0
  1
TRIM-SKIN-01  门套外皮
  7
CN
 72
1
 11
2100.0
 21
12905.0
 31
0.0
100
AcDbText
 73
2
  0
TEXT
  5
E1
330
17
100
AcDbEntity
  8
TEXT
100
AcDbText
 10
150.0
 20
12825.0
 30
0.0
 40
25.0
  1
类型：板件  |  厚度：1.2 mm
  7
CN
 11
150.0
 21
12825.0
 31
0.0
100
AcDbText
 73
2
  0
TEXT
  5
E2
330
17
100
AcDbEntity
  8
TEXT
100
AcDbText
 10
620.0
 20
12700.0
 30
0.0
 40
27.0
  1
折弯成品截面图
  7
CN
 72
1
 11
620.0
 21
12700.0
 31
0.0
100
AcDbText
 73
2
  0
LWPOLYLINE
  5
E3
330
17
100
AcDbEntity
  8
SKIN
100
AcDbPolyline
 90
3
 70
0
 10
330.0
 20
12550.0
 10
514.0
 20
12550.0
 10
514.0
 20
12492.5
  0
LWPOLYLINE
  5
E4
330
17
100
AcDbEntity
  8
WELD
100
AcDbPolyline
 90
3
 70
1
 10
514.0
 20
12550.0
 10
532.0
 20
12568.0
 10
532.0
 20
12532.0
  0
TEXT
  5
E5
330
17
100
AcDbEntity
  8
TEXT
100
AcDbText
 10
620.0
 20
12310.0
 30
0.0
 40
25.0
  1
t=1.2
  7
CN
 72
1
 11
620.0
 21
12310.0
 31
0.0
100
AcDbText
 73
2
  0
TEXT
  5
E6
330
17
100
AcDbEntity
  8
TEXT
100
AcDbText
 10
1502.5
 20
12780.0
 30
0.0
 40
27.0
  1
板材展开图
  7
CN
 72
1
 11
1502.5
 21
12780.0
 31
0.0
100
AcDbText
 73
2
  0
LWPOLYLINE
  5
E7
330
17
100
AcDbEntity
  8
CUT
100
AcDbPolyline
 90
4
 70
1
 10
1450.0
 20
10620.0
 10
1555.0
 20
10620.0
 10
1555.0
 20
12720.0
 10
1450.0
 20
12720.0
  0
LINE
  5
E8
330
17
100
AcDbEntity
  8
BEND
100
AcDbLine
 10
1530.0
 20
10620.0
 30
0.0
 11
1530.0
 21
12720.0
 31
0.0
  0
TEXT
  5
E9
330
17
100
AcDbEntity
  8
BEND
100
AcDbText
 10
1530.0
 20
12758.0
 30
0.0
 40
22.0
  1
B1
  7
CN
 72
1
 11
1530.0
 21
12758.0
 31
0.0
100
AcDbText
 73
2
  0
LINE
  5
EA
330
17
100
AcDbEntity
  8
DIM
100
AcDbLine
 10
1450.0
 20
10620.0
 30
0.0
 11
1450.0
 21
10555.0
 31
0.0
  0
LINE
  5
EB
330
17
100
AcDbEntity
  8
DIM
100
AcDbLine
 10
1555.0
 20
10620.0
 30
0.0
 11
1555.0
 21
10555.0
 31
0.0
  0
LINE
  5
EC
330
17
100
AcDbEntity
  8
DIM
100
AcDbLine
 10
1450.0
 20
10555.0
 30
0.0
 11
1555.0
 21
10555.0
 31
0.0
  0
LINE
  5
ED
330
17
100
AcDbEntity
  8
DIM
100
AcDbLine
 10
1438.0
 20
10543.0
 30
0.0
 11
1462.0
 21
10567.0
 31
0.0
  0
LINE
  5
EE
330
17
100
AcDbEntity
  8
DIM
100
AcDbLine
 10
1543.0
 20
10543.0
 30
0.0
 11
1567.0
 21
10567.0
 31
0.0
  0
TEXT
  5
EF
330
17
100
AcDbEntity
  8
DIM
100
AcDbText
 10
1502.5
 20
10527.0
 30
0.0
 40
25.0
  1
展开宽 105
  7
CN
 72
1
 11
1502.5
 21
10527.0
 31
0.0
100
AcDbText
 73
2
  0
LINE
  5
F0
330
17
100
AcDbEntity
  8
DIM
100
AcDbLine
 10
1555.0
 20
10620.0
 30
0.0
 11
1625.0
 21
10620.0
 31
0.0
  0
LINE
  5
F1
330
17
100
AcDbEntity
  8
DIM
100
AcDbLine
 10
1555.0
 20
12720.0
 30
0.0
 11
1625.0
 21
12720.0
 31
0.0
  0
LINE
  5
F2
330
17
100
AcDbEntity
  8
DIM
100
AcDbLine
 10
1625.0
 20
10620.0
 30
0.0
 11
1625.0
 21
12720.0
 31
0.0
  0
LINE
  5
F3
330
17
100
AcDbEntity
  8
DIM
100
AcDbLine
 10
1613.0
 20
10608.0
 30
0.0
 11
1637.0
 21
10632.0
 31
0.0
  0
LINE
  5
F4
330
17
100
AcDbEntity
  8
DIM
100
AcDbLine
 10
1613.0
 20
12708.0
 30
0.0
 11
1637.0
 21
12732.0
 31
0.0
  0
TEXT
  5
F5
330
17
100
AcDbEntity
  8
DIM
100
AcDbText
 10
1655.0
 20
11670.0
 30
0.0
 40
25.0
  1
2100
 50
90.0
  7
CN
 72
1
 11
1655.0
 21
11670.0
 31
0.0
100
AcDbText
 73
2
  0
TEXT
  5
F6
330
17
100
AcDbEntity
  8
TEXT
100
AcDbText
 10
1502.5
 20
10490.0
 30
0.0
 40
22.0
  1
分段 80 + 25
  7
CN
 72
1
 11
1502.5
 21
10490.0
 31
0.0
100
AcDbText
 73
2
  0
LWPOLYLINE
  5
F7
330
17
100
AcDbEntity
  8
SKIN
100
AcDbPolyline
 90
4
 70
1
 10
2950.0
 20
10620.0
 10
3030.0
 20
10620.0
 10
3030.0
 20
12720.0
 10
2950.0
 20
12720.0
  0
LINE
  5
F8
330
17
100
AcDbEntity
  8
DIM
100
AcDbLine
 10
2950.0
 20
10620.0
 30
0.0
 11
2950.0
 21
10555.0
 31
0.0
  0
LINE
  5
F9
330
17
100
AcDbEntity
  8
DIM
100
AcDbLine
 10
3030.0
 20
10620.0
 30
0.0
 11
3030.0
 21
10555.0
 31
0.0
  0
LINE
  5
FA
330
17
100
AcDbEntity
  8
DIM
100
AcDbLine
 10
2950.0
 20
10555.0
 30
0.0
 11
3030.0
 21
10555.0
 31
0.0
  0
LINE
  5
FB
330
17
100
AcDbEntity
  8
DIM
100
AcDbLine
 10
2938.0
 20
10543.0
 30
0.0
 11
2962.0
 21
10567.0
 31
0.0
  0
LINE
  5
FC
330
17
100
AcDbEntity
  8
DIM
100
AcDbLine
 10
3018.0
 20
10543.0
 30
0.0
 11
3042.0
 21
10567.0
 31
0.0
  0
TEXT
  5
FD
330
17
100
AcDbEntity
  8
DIM
100
AcDbText
 10
2990.0
 20
10527.0
 30
0.0
 40
25.0
  1
宽 80
  7
CN
 72
1
 11
2990.0
 21
10527.0
 31
0.0
100
AcDbText
 73
2
  0
LINE
  5
FE
330
17
100
AcDbEntity
  8
DIM
100
AcDbLine
 10
3030.0
 20
10620.0
 30
0.0
 11
3100.0
 21
10620.0
 31
0.0
  0
LINE
  5
FF
330
17
100
AcDbEntity
  8
DIM
100
AcDbLine
 10
3030.0
 20
12720.0
 30
0.0
 11
3100.0
 21
12720.0
 31
0.0
  0
LINE
  5
100
330
17
100
AcDbEntity
  8
DIM
100
AcDbLine
 10
3100.0
 20
10620.0
 30
0.0
 11
3100.0
 21
12720.0
 31
0.0
  0
LINE
  5
101
330
17
100
AcDbEntity
  8
DIM
100
AcDbLine
 10
3088.0
 20
10608.0
 30
0.0
 11
3112.0
 21
10632.0
 31
0.0
  0
LINE
  5
102
330
17
100
AcDbEntity
  8
DIM
100
AcDbLine
 10
3088.0
 20
12708.0
 30
0.0
 11
3112.0
 21
12732.0
 31
0.0
  0
TEXT
  5
103
330
17
100
AcDbEntity
  8
DIM
100
AcDbText
 10
3130.0
 20
11670.0
 30
0.0
 40
25.0
  1
高 2100
 50
90.0
  7
CN
 72
1
 11
3130.0
 21
11670.0
 31
0.0
100
AcDbText
 73
2
  0
TEXT
  5
104
330
17
100
AcDbEntity
  8
TEXT
100
AcDbText
 10
2990.0
 20
12775.0
 30
0.0
 40
26.0
  1
零件立面图
  7
CN
 72
1
 11
2990.0
 21
12775.0
 31
0.0
100
AcDbText
 73
2
  0
LWPOLYLINE
  5
105
330
17
100
AcDbEntity
  8
REF-WALL
100
AcDbPolyline
 90
4
 70
1
 10
4400.0
 20
10500.0
 10
8600.0
 20
10500.0
 10
8600.0
 20
13000.0
 10
4400.0
 20
13000.0
  0
TEXT
  5
106
330
17
100
AcDbEntity
  8
TEXT
100
AcDbText
 10
6500.0
 20
12905.0
 30
0.0
 40
44.0
  1
TRIM-SKELETON-01  门套折弯骨架
  7
CN
 72
1
 11
6500.0
 21
12905.0
 31
0.0
100
AcDbText
 73
2
  0
TEXT
  5
107
330
17
100
AcDbEntity
  8
TEXT
100
AcDbText
 10
4550.0
 20
12825.0
 30
0.0
 40
25.0
  1
类型：板件  |  厚度：1.5 mm
  7
CN
 11
4550.0
 21
12825.0
 31
0.0
100
AcDbText
 73
2
  0
TEXT
  5
108
330
17
100
AcDbEntity
  8
TEXT
100
AcDbText
 10
5020.0
 20
12700.0
 30
0.0
 40
27.0
  1
折弯成品截面图
  7
CN
 72
1
 11
5020.0
 21
12700.0
 31
0.0
100
AcDbText
 73
2
  0
LWPOLYLINE
  5
109
330
17
100
AcDbEntity
  8
SKELETON
100
AcDbPolyline
 90
4
 70
0
 10
4730.0
 20
12550.0
 10
4822.0
 20
12550.0
 10
4822.0
 20
12481.0
 10
4868.0
 20
12481.0
  0
LWPOLYLINE
  5
10A
330
17
100
AcDbEntity
  8
WELD
100
AcDbPolyline
 90
3
 70
1
 10
4822.0
 20
12550.0
 10
4840.0
 20
12568.0
 10
4840.0
 20
12532.0
  0
LWPOLYLINE
  5
10B
330
17
100
AcDbEntity
  8
WELD
100
AcDbPolyline
 90
3
 70
1
 10
4822.0
 20
12481.0
 10
4840.0
 20
12499.0
 10
4840.0
 20
12463.0
  0
TEXT
  5
10C
330
17
100
AcDbEntity
  8
TEXT
100
AcDbText
 10
5020.0
 20
12310.0
 30
0.0
 40
25.0
  1
t=1.5
  7
CN
 72
1
 11
5020.0
 21
12310.0
 31
0.0
100
AcDbText
 73
2
  0
TEXT
  5
10D
330
17
100
AcDbEntity
  8
TEXT
100
AcDbText
 10
5895.0
 20
12780.0
 30
0.0
 40
27.0
  1
板材展开图
  7
CN
 72
1
 11
5895.0
 21
12780.0
 31
0.0
100
AcDbText
 73
2
  0
LWPOLYLINE
  5
10E
330
17
100
AcDbEntity
  8
CUT
100
AcDbPolyline
 90
4
 70
1
 10
5850.0
 20
10620.0
 10
5940.0
 20
10620.0
 10
5940.0
 20
12720.0
 10
5850.0
 20
12720.0
  0
LINE
  5
10F
330
17
100
AcDbEntity
  8
BEND
100
AcDbLine
 10
5890.0
 20
10620.0
 30
0.0
 11
5890.0
 21
12720.0
 31
0.0
  0
TEXT
  5
110
330
17
100
AcDbEntity
  8
BEND
100
AcDbText
 10
5890.0
 20
12758.0
 30
0.0
 40
22.0
  1
B1
  7
CN
 72
1
 11
5890.0
 21
12758.0
 31
0.0
100
AcDbText
 73
2
  0
LINE
  5
111
330
17
100
AcDbEntity
  8
BEND
100
AcDbLine
 10
5920.0
 20
10620.0
 30
0.0
 11
5920.0
 21
12720.0
 31
0.0
  0
TEXT
  5
112
330
17
100
AcDbEntity
  8
BEND
100
AcDbText
 10
5920.0
 20
12758.0
 30
0.0
 40
22.0
  1
B2
  7
CN
 72
1
 11
5920.0
 21
12758.0
 31
0.0
100
AcDbText
 73
2
  0
LINE
  5
113
330
17
100
AcDbEntity
  8
DIM
100
AcDbLine
 10
5850.0
 20
10620.0
 30
0.0
 11
5850.0
 21
10555.0
 31
0.0
  0
LINE
  5
114
330
17
100
AcDbEntity
  8
DIM
100
AcDbLine
 10
5940.0
 20
10620.0
 30
0.0
 11
5940.0
 21
10555.0
 31
0.0
  0
LINE
  5
115
330
17
100
AcDbEntity
  8
DIM
100
AcDbLine
 10
5850.0
 20
10555.0
 30
0.0
 11
5940.0
 21
10555.0
 31
0.0
  0
LINE
  5
116
330
17
100
AcDbEntity
  8
DIM
100
AcDbLine
 10
5838.0
 20
10543.0
 30
0.0
 11
5862.0
 21
10567.0
 31
0.0
  0
LINE
  5
117
330
17
100
AcDbEntity
  8
DIM
100
AcDbLine
 10
5928.0
 20
10543.0
 30
0.0
 11
5952.0
 21
10567.0
 31
0.0
  0
TEXT
  5
118
330
17
100
AcDbEntity
  8
DIM
100
AcDbText
 10
5895.0
 20
10527.0
 30
0.0
 40
25.0
  1
展开宽 90
  7
CN
 72
1
 11
5895.0
 21
10527.0
 31
0.0
100
AcDbText
 73
2
  0
LINE
  5
119
330
17
100
AcDbEntity
  8
DIM
100
AcDbLine
 10
5940.0
 20
10620.0
 30
0.0
 11
6010.0
 21
10620.0
 31
0.0
  0
LINE
  5
11A
330
17
100
AcDbEntity
  8
DIM
100
AcDbLine
 10
5940.0
 20
12720.0
 30
0.0
 11
6010.0
 21
12720.0
 31
0.0
  0
LINE
  5
11B
330
17
100
AcDbEntity
  8
DIM
100
AcDbLine
 10
6010.0
 20
10620.0
 30
0.0
 11
6010.0
 21
12720.0
 31
0.0
  0
LINE
  5
11C
330
17
100
AcDbEntity
  8
DIM
100
AcDbLine
 10
5998.0
 20
10608.0
 30
0.0
 11
6022.0
 21
10632.0
 31
0.0
  0
LINE
  5
11D
330
17
100
AcDbEntity
  8
DIM
100
AcDbLine
 10
5998.0
 20
12708.0
 30
0.0
 11
6022.0
 21
12732.0
 31
0.0
  0
TEXT
  5
11E
330
17
100
AcDbEntity
  8
DIM
100
AcDbText
 10
6040.0
 20
11670.0
 30
0.0
 40
25.0
  1
2100
 50
90.0
  7
CN
 72
1
 11
6040.0
 21
11670.0
 31
0.0
100
AcDbText
 73
2
  0
TEXT
  5
11F
330
17
100
AcDbEntity
  8
TEXT
100
AcDbText
 10
5895.0
 20
10490.0
 30
0.0
 40
22.0
  1
分段 40 + 30 + 20
  7
CN
 72
1
 11
5895.0
 21
10490.0
 31
0.0
100
AcDbText
 73
2
  0
LWPOLYLINE
  5
120
330
17
100
AcDbEntity
  8
SKIN
100
AcDbPolyline
 90
4
 70
1
 10
7350.0
 20
10620.0
 10
7390.0
 20
10620.0
 10
7390.0
 20
12720.0
 10
7350.0
 20
12720.0
  0
LINE
  5
121
330
17
100
AcDbEntity
  8
DIM
100
AcDbLine
 10
7350.0
 20
10620.0
 30
0.0
 11
7350.0
 21
10555.0
 31
0.0
  0
LINE
  5
122
330
17
100
AcDbEntity
  8
DIM
100
AcDbLine
 10
7390.0
 20
10620.0
 30
0.0
 11
7390.0
 21
10555.0
 31
0.0
  0
LINE
  5
123
330
17
100
AcDbEntity
  8
DIM
100
AcDbLine
 10
7350.0
 20
10555.0
 30
0.0
 11
7390.0
 21
10555.0
 31
0.0
  0
LINE
  5
124
330
17
100
AcDbEntity
  8
DIM
100
AcDbLine
 10
7338.0
 20
10543.0
 30
0.0
 11
7362.0
 21
10567.0
 31
0.0
  0
LINE
  5
125
330
17
100
AcDbEntity
  8
DIM
100
AcDbLine
 10
7378.0
 20
10543.0
 30
0.0
 11
7402.0
 21
10567.0
 31
0.0
  0
TEXT
  5
126
330
17
100
AcDbEntity
  8
DIM
100
AcDbText
 10
7370.0
 20
10527.0
 30
0.0
 40
25.0
  1
宽 40
  7
CN
 72
1
 11
7370.0
 21
10527.0
 31
0.0
100
AcDbText
 73
2
  0
LINE
  5
127
330
17
100
AcDbEntity
  8
DIM
100
AcDbLine
 10
7390.0
 20
10620.0
 30
0.0
 11
7460.0
 21
10620.0
 31
0.0
  0
LINE
  5
128
330
17
100
AcDbEntity
  8
DIM
100
AcDbLine
 10
7390.0
 20
12720.0
 30
0.0
 11
7460.0
 21
12720.0
 31
0.0
  0
LINE
  5
129
330
17
100
AcDbEntity
  8
DIM
100
AcDbLine
 10
7460.0
 20
10620.0
 30
0.0
 11
7460.0
 21
12720.0
 31
0.0
  0
LINE
  5
12A
330
17
100
AcDbEntity
  8
DIM
100
AcDbLine
 10
7448.0
 20
10608.0
 30
0.0
 11
7472.0
 21
10632.0
 31
0.0
  0
LINE
  5
12B
330
17
100
AcDbEntity
  8
DIM
100
AcDbLine
 10
7448.0
 20
12708.0
 30
0.0
 11
7472.0
 21
12732.0
 31
0.0
  0
TEXT
  5
12C
330
17
100
AcDbEntity
  8
DIM
100
AcDbText
 10
7490.0
 20
11670.0
 30
0.0
 40
25.0
  1
高 2100
 50
90.0
  7
CN
 72
1
 11
7490.0
 21
11670.0
 31
0.0
100
AcDbText
 73
2
  0
TEXT
  5
12D
330
17
100
AcDbEntity
  8
TEXT
100
AcDbText
 10
7370.0
 20
12775.0
 30
0.0
 40
26.0
  1
零件立面图
  7
CN
 72
1
 11
7370.0
 21
12775.0
 31
0.0
100
AcDbText
 73
2
  0
LWPOLYLINE
  5
12E
330
17
100
AcDbEntity
  8
REF-WALL
100
AcDbPolyline
 90
4
 70
1
 10
0.0
 20
7800.0
 10
4200.0
 20
7800.0
 10
4200.0
 20
10300.0
 10
0.0
 20
10300.0
  0
TEXT
  5
12F
330
17
100
AcDbEntity
  8
TEXT
100
AcDbText
 10
2100.0
 20
10205.0
 30
0.0
 40
44.0
  1
FRAME-SKIN-01  门框外皮
  7
CN
 72
1
 11
2100.0
 21
10205.0
 31
0.0
100
AcDbText
 73
2
  0
TEXT
  5
130
330
17
100
AcDbEntity
  8
TEXT
100
AcDbText
 10
150.0
 20
10125.0
 30
0.0
 40
25.0
  1
类型：板件  |  厚度：1.5 mm
  7
CN
 11
150.0
 21
10125.0
 31
0.0
100
AcDbText
 73
2
  0
TEXT
  5
131
330
17
100
AcDbEntity
  8
TEXT
100
AcDbText
 10
620.0
 20
10000.0
 30
0.0
 40
27.0
  1
折弯成品截面图
  7
CN
 72
1
 11
620.0
 21
10000.0
 31
0.0
100
AcDbText
 73
2
  0
LWPOLYLINE
  5
132
330
17
100
AcDbEntity
  8
SKIN
100
AcDbPolyline
 90
4
 70
0
 10
330.0
 20
9850.0
 10
445.0
 20
9850.0
 10
445.0
 20
9574.0
 10
502.5
 20
9574.0
  0
LWPOLYLINE
  5
133
330
17
100
AcDbEntity
  8
WELD
100
AcDbPolyline
 90
3
 70
1
 10
445.0
 20
9850.0
 10
463.0
 20
9868.0
 10
463.0
 20
9832.0
  0
LWPOLYLINE
  5
134
330
17
100
AcDbEntity
  8
WELD
100
AcDbPolyline
 90
3
 70
1
 10
445.0
 20
9574.0
 10
463.0
 20
9592.0
 10
463.0
 20
9556.0
  0
TEXT
  5
135
330
17
100
AcDbEntity
  8
TEXT
100
AcDbText
 10
620.0
 20
9610.0
 30
0.0
 40
25.0
  1
t=1.5
  7
CN
 72
1
 11
620.0
 21
9610.0
 31
0.0
100
AcDbText
 73
2
  0
TEXT
  5
136
330
17
100
AcDbEntity
  8
TEXT
100
AcDbText
 10
1547.5
 20
10080.0
 30
0.0
 40
27.0
  1
板材展开图
  7
CN
 72
1
 11
1547.5
 21
10080.0
 31
0.0
100
AcDbText
 73
2
  0
LWPOLYLINE
  5
137
330
17
100
AcDbEntity
  8
CUT
100
AcDbPolyline
 90
4
 70
1
 10
1450.0
 20
7920.0
 10
1645.0
 20
7920.0
 10
1645.0
 20
10020.0
 10
1450.0
 20
10020.0
  0
LINE
  5
138
330
17
100
AcDbEntity
  8
BEND
100
AcDbLine
 10
1500.0
 20
7920.0
 30
0.0
 11
1500.0
 21
10020.0
 31
0.0
  0
TEXT
  5
139
330
17
100
AcDbEntity
  8
BEND
100
AcDbText
 10
1500.0
 20
10058.0
 30
0.0
 40
22.0
  1
B1
  7
CN
 72
1
 11
1500.0
 21
10058.0
 31
0.0
100
AcDbText
 73
2
  0
LINE
  5
13A
330
17
100
AcDbEntity
  8
BEND
100
AcDbLine
 10
1620.0
 20
7920.0
 30
0.0
 11
1620.0
 21
10020.0
 31
0.0
  0
TEXT
  5
13B
330
17
100
AcDbEntity
  8
BEND
100
AcDbText
 10
1620.0
 20
10058.0
 30
0.0
 40
22.0
  1
B2
  7
CN
 72
1
 11
1620.0
 21
10058.0
 31
0.0
100
AcDbText
 73
2
  0
LWPOLYLINE
  5
13C
330
17
100
AcDbEntity
  8
CUT
100
AcDbPolyline
 90
4
 70
1
 10
1532.5
 20
8120.0
 10
1562.5
 20
8120.0
 10
1562.5
 20
8220.0
 10
1532.5
 20
8220.0
  0
LINE
  5
13D
330
17
100
AcDbEntity
  8
CENTER
100
AcDbLine
 10
1517.5
 20
8170.0
 30
0.0
 11
1577.5
 21
8170.0
 31
0.0
  0
LWPOLYLINE
  5
13E
330
17
100
AcDbEntity
  8
CUT
100
AcDbPolyline
 90
4
 70
1
 10
1532.5
 20
8920.0
 10
1562.5
 20
8920.0
 10
1562.5
 20
9020.0
 10
1532.5
 20
9020.0
  0
LINE
  5
13F
330
17
100
AcDbEntity
  8
CENTER
100
AcDbLine
 10
1517.5
 20
8970.0
 30
0.0
 11
1577.5
 21
8970.0
 31
0.0
  0
LWPOLYLINE
  5
140
330
17
100
AcDbEntity
  8
CUT
100
AcDbPolyline
 90
4
 70
1
 10
1532.5
 20
9720.0
 10
1562.5
 20
9720.0
 10
1562.5
 20
9820.0
 10
1532.5
 20
9820.0
  0
LINE
  5
141
330
17
100
AcDbEntity
  8
CENTER
100
AcDbLine
 10
1517.5
 20
9770.0
 30
0.0
 11
1577.5
 21
9770.0
 31
0.0
  0
LINE
  5
142
330
17
100
AcDbEntity
  8
DIM
100
AcDbLine
 10
1450.0
 20
7920.0
 30
0.0
 11
1450.0
 21
7855.0
 31
0.0
  0
LINE
  5
143
330
17
100
AcDbEntity
  8
DIM
100
AcDbLine
 10
1645.0
 20
7920.0
 30
0.0
 11
1645.0
 21
7855.0
 31
0.0
  0
LINE
  5
144
330
17
100
AcDbEntity
  8
DIM
100
AcDbLine
 10
1450.0
 20
7855.0
 30
0.0
 11
1645.0
 21
7855.0
 31
0.0
  0
LINE
  5
145
330
17
100
AcDbEntity
  8
DIM
100
AcDbLine
 10
1438.0
 20
7843.0
 30
0.0
 11
1462.0
 21
7867.0
 31
0.0
  0
LINE
  5
146
330
17
100
AcDbEntity
  8
DIM
100
AcDbLine
 10
1633.0
 20
7843.0
 30
0.0
 11
1657.0
 21
7867.0
 31
0.0
  0
TEXT
  5
147
330
17
100
AcDbEntity
  8
DIM
100
AcDbText
 10
1547.5
 20
7827.0
 30
0.0
 40
25.0
  1
展开宽 195
  7
CN
 72
1
 11
1547.5
 21
7827.0
 31
0.0
100
AcDbText
 73
2
  0
LINE
  5
148
330
17
100
AcDbEntity
  8
DIM
100
AcDbLine
 10
1645.0
 20
7920.0
 30
0.0
 11
1715.0
 21
7920.0
 31
0.0
  0
LINE
  5
149
330
17
100
AcDbEntity
  8
DIM
100
AcDbLine
 10
1645.0
 20
10020.0
 30
0.0
 11
1715.0
 21
10020.0
 31
0.0
  0
LINE
  5
14A
330
17
100
AcDbEntity
  8
DIM
100
AcDbLine
 10
1715.0
 20
7920.0
 30
0.0
 11
1715.0
 21
10020.0
 31
0.0
  0
LINE
  5
14B
330
17
100
AcDbEntity
  8
DIM
100
AcDbLine
 10
1703.0
 20
7908.0
 30
0.0
 11
1727.0
 21
7932.0
 31
0.0
  0
LINE
  5
14C
330
17
100
AcDbEntity
  8
DIM
100
AcDbLine
 10
1703.0
 20
10008.0
 30
0.0
 11
1727.0
 21
10032.0
 31
0.0
  0
TEXT
  5
14D
330
17
100
AcDbEntity
  8
DIM
100
AcDbText
 10
1745.0
 20
8970.0
 30
0.0
 40
25.0
  1
2100
 50
90.0
  7
CN
 72
1
 11
1745.0
 21
8970.0
 31
0.0
100
AcDbText
 73
2
  0
TEXT
  5
14E
330
17
100
AcDbEntity
  8
TEXT
100
AcDbText
 10
1547.5
 20
7790.0
 30
0.0
 40
22.0
  1
分段 50 + 120 + 25
  7
CN
 72
1
 11
1547.5
 21
7790.0
 31
0.0
100
AcDbText
 73
2
  0
LWPOLYLINE
  5
14F
330
17
100
AcDbEntity
  8
SKIN
100
AcDbPolyline
 90
4
 70
1
 10
2950.0
 20
7920.0
 10
3000.0
 20
7920.0
 10
3000.0
 20
10020.0
 10
2950.0
 20
10020.0
  0
LWPOLYLINE
  5
150
330
17
100
AcDbEntity
  8
CUT
100
AcDbPolyline
 90
4
 70
1
 10
2960.0
 20
8120.0
 10
2990.0
 20
8120.0
 10
2990.0
 20
8220.0
 10
2960.0
 20
8220.0
  0
LINE
  5
151
330
17
100
AcDbEntity
  8
CENTER
100
AcDbLine
 10
2945.0
 20
8170.0
 30
0.0
 11
3005.0
 21
8170.0
 31
0.0
  0
LWPOLYLINE
  5
152
330
17
100
AcDbEntity
  8
CUT
100
AcDbPolyline
 90
4
 70
1
 10
2960.0
 20
8920.0
 10
2990.0
 20
8920.0
 10
2990.0
 20
9020.0
 10
2960.0
 20
9020.0
  0
LINE
  5
153
330
17
100
AcDbEntity
  8
CENTER
100
AcDbLine
 10
2945.0
 20
8970.0
 30
0.0
 11
3005.0
 21
8970.0
 31
0.0
  0
LWPOLYLINE
  5
154
330
17
100
AcDbEntity
  8
CUT
100
AcDbPolyline
 90
4
 70
1
 10
2960.0
 20
9720.0
 10
2990.0
 20
9720.0
 10
2990.0
 20
9820.0
 10
2960.0
 20
9820.0
  0
LINE
  5
155
330
17
100
AcDbEntity
  8
CENTER
100
AcDbLine
 10
2945.0
 20
9770.0
 30
0.0
 11
3005.0
 21
9770.0
 31
0.0
  0
LINE
  5
156
330
17
100
AcDbEntity
  8
DIM
100
AcDbLine
 10
2950.0
 20
7920.0
 30
0.0
 11
2950.0
 21
7855.0
 31
0.0
  0
LINE
  5
157
330
17
100
AcDbEntity
  8
DIM
100
AcDbLine
 10
3000.0
 20
7920.0
 30
0.0
 11
3000.0
 21
7855.0
 31
0.0
  0
LINE
  5
158
330
17
100
AcDbEntity
  8
DIM
100
AcDbLine
 10
2950.0
 20
7855.0
 30
0.0
 11
3000.0
 21
7855.0
 31
0.0
  0
LINE
  5
159
330
17
100
AcDbEntity
  8
DIM
100
AcDbLine
 10
2938.0
 20
7843.0
 30
0.0
 11
2962.0
 21
7867.0
 31
0.0
  0
LINE
  5
15A
330
17
100
AcDbEntity
  8
DIM
100
AcDbLine
 10
2988.0
 20
7843.0
 30
0.0
 11
3012.0
 21
7867.0
 31
0.0
  0
TEXT
  5
15B
330
17
100
AcDbEntity
  8
DIM
100
AcDbText
 10
2975.0
 20
7827.0
 30
0.0
 40
25.0
  1
宽 50
  7
CN
 72
1
 11
2975.0
 21
7827.0
 31
0.0
100
AcDbText
 73
2
  0
LINE
  5
15C
330
17
100
AcDbEntity
  8
DIM
100
AcDbLine
 10
3000.0
 20
7920.0
 30
0.0
 11
3070.0
 21
7920.0
 31
0.0
  0
LINE
  5
15D
330
17
100
AcDbEntity
  8
DIM
100
AcDbLine
 10
3000.0
 20
10020.0
 30
0.0
 11
3070.0
 21
10020.0
 31
0.0
  0
LINE
  5
15E
330
17
100
AcDbEntity
  8
DIM
100
AcDbLine
 10
3070.0
 20
7920.0
 30
0.0
 11
3070.0
 21
10020.0
 31
0.0
  0
LINE
  5
15F
330
17
100
AcDbEntity
  8
DIM
100
AcDbLine
 10
3058.0
 20
7908.0
 30
0.0
 11
3082.0
 21
7932.0
 31
0.0
  0
LINE
  5
160
330
17
100
AcDbEntity
  8
DIM
100
AcDbLine
 10
3058.0
 20
10008.0
 30
0.0
 11
3082.0
 21
10032.0
 31
0.0
  0
TEXT
  5
161
330
17
100
AcDbEntity
  8
DIM
100
AcDbText
 10
3100.0
 20
8970.0
 30
0.0
 40
25.0
  1
高 2100
 50
90.0
  7
CN
 72
1
 11
3100.0
 21
8970.0
 31
0.0
100
AcDbText
 73
2
  0
TEXT
  5
162
330
17
100
AcDbEntity
  8
TEXT
100
AcDbText
 10
2975.0
 20
10075.0
 30
0.0
 40
26.0
  1
零件立面图
  7
CN
 72
1
 11
2975.0
 21
10075.0
 31
0.0
100
AcDbText
 73
2
  0
TEXT
  5
163
330
17
100
AcDbEntity
  8
CUT
100
AcDbText
 10
2100.0
 20
7845.0
 30
0.0
 40
23.0
  1
HINGE-01：30x100，中心高 250 / 1050 / 1850
  7
CN
 72
1
 11
2100.0
 21
7845.0
 31
0.0
100
AcDbText
 73
2
  0
LWPOLYLINE
  5
164
330
17
100
AcDbEntity
  8
REF-WALL
100
AcDbPolyline
 90
4
 70
1
 10
4400.0
 20
7800.0
 10
8600.0
 20
7800.0
 10
8600.0
 20
10300.0
 10
4400.0
 20
10300.0
  0
TEXT
  5
165
330
17
100
AcDbEntity
  8
TEXT
100
AcDbText
 10
6500.0
 20
10205.0
 30
0.0
 40
44.0
  1
FRAME-SKELETON-01  门框折弯骨架
  7
CN
 72
1
 11
6500.0
 21
10205.0
 31
0.0
100
AcDbText
 73
2
  0
TEXT
  5
166
330
17
100
AcDbEntity
  8
TEXT
100
AcDbText
 10
4550.0
 20
10125.0
 30
0.0
 40
25.0
  1
类型：板件  |  厚度：2 mm
  7
CN
 11
4550.0
 21
10125.0
 31
0.0
100
AcDbText
 73
2
  0
TEXT
  5
167
330
17
100
AcDbEntity
  8
TEXT
100
AcDbText
 10
5020.0
 20
10000.0
 30
0.0
 40
27.0
  1
折弯成品截面图
  7
CN
 72
1
 11
5020.0
 21
10000.0
 31
0.0
100
AcDbText
 73
2
  0
LWPOLYLINE
  5
168
330
17
100
AcDbEntity
  8
SKELETON
100
AcDbPolyline
 90
4
 70
0
 10
4730.0
 20
9850.0
 10
4810.5
 20
9850.0
 10
4810.5
 20
9735.0
 10
4891.0
 20
9735.0
  0
LWPOLYLINE
  5
169
330
17
100
AcDbEntity
  8
WELD
100
AcDbPolyline
 90
3
 70
1
 10
4810.5
 20
9850.0
 10
4828.5
 20
9868.0
 10
4828.5
 20
9832.0
  0
LWPOLYLINE
  5
16A
330
17
100
AcDbEntity
  8
WELD
100
AcDbPolyline
 90
3
 70
1
 10
4810.5
 20
9735.0
 10
4828.5
 20
9753.0
 10
4828.5
 20
9717.0
  0
TEXT
  5
16B
330
17
100
AcDbEntity
  8
TEXT
100
AcDbText
 10
5020.0
 20
9610.0
 30
0.0
 40
25.0
  1
t=2
  7
CN
 72
1
 11
5020.0
 21
9610.0
 31
0.0
100
AcDbText
 73
2
  0
TEXT
  5
16C
330
17
100
AcDbEntity
  8
TEXT
100
AcDbText
 10
5910.0
 20
10080.0
 30
0.0
 40
27.0
  1
板材展开图
  7
CN
 72
1
 11
5910.0
 21
10080.0
 31
0.0
100
AcDbText
 73
2
  0
LWPOLYLINE
  5
16D
330
17
100
AcDbEntity
  8
CUT
100
AcDbPolyline
 90
4
 70
1
 10
5850.0
 20
7920.0
 10
5970.0
 20
7920.0
 10
5970.0
 20
10020.0
 10
5850.0
 20
10020.0
  0
LINE
  5
16E
330
17
100
AcDbEntity
  8
BEND
100
AcDbLine
 10
5885.0
 20
7920.0
 30
0.0
 11
5885.0
 21
10020.0
 31
0.0
  0
TEXT
  5
16F
330
17
100
AcDbEntity
  8
BEND
100
AcDbText
 10
5885.0
 20
10058.0
 30
0.0
 40
22.0
  1
B1
  7
CN
 72
1
 11
5885.0
 21
10058.0
 31
0.0
100
AcDbText
 73
2
  0
LINE
  5
170
330
17
100
AcDbEntity
  8
BEND
100
AcDbLine
 10
5935.0
 20
7920.0
 30
0.0
 11
5935.0
 21
10020.0
 31
0.0
  0
TEXT
  5
171
330
17
100
AcDbEntity
  8
BEND
100
AcDbText
 10
5935.0
 20
10058.0
 30
0.0
 40
22.0
  1
B2
  7
CN
 72
1
 11
5935.0
 21
10058.0
 31
0.0
100
AcDbText
 73
2
  0
LWPOLYLINE
  5
172
330
17
100
AcDbEntity
  8
CUT
100
AcDbPolyline
 90
4
 70
1
 10
5895.0
 20
8120.0
 10
5925.0
 20
8120.0
 10
5925.0
 20
8220.0
 10
5895.0
 20
8220.0
  0
LINE
  5
173
330
17
100
AcDbEntity
  8
CENTER
100
AcDbLine
 10
5880.0
 20
8170.0
 30
0.0
 11
5940.0
 21
8170.0
 31
0.0
  0
LWPOLYLINE
  5
174
330
17
100
AcDbEntity
  8
CUT
100
AcDbPolyline
 90
4
 70
1
 10
5895.0
 20
8920.0
 10
5925.0
 20
8920.0
 10
5925.0
 20
9020.0
 10
5895.0
 20
9020.0
  0
LINE
  5
175
330
17
100
AcDbEntity
  8
CENTER
100
AcDbLine
 10
5880.0
 20
8970.0
 30
0.0
 11
5940.0
 21
8970.0
 31
0.0
  0
LWPOLYLINE
  5
176
330
17
100
AcDbEntity
  8
CUT
100
AcDbPolyline
 90
4
 70
1
 10
5895.0
 20
9720.0
 10
5925.0
 20
9720.0
 10
5925.0
 20
9820.0
 10
5895.0
 20
9820.0
  0
LINE
  5
177
330
17
100
AcDbEntity
  8
CENTER
100
AcDbLine
 10
5880.0
 20
9770.0
 30
0.0
 11
5940.0
 21
9770.0
 31
0.0
  0
LINE
  5
178
330
17
100
AcDbEntity
  8
DIM
100
AcDbLine
 10
5850.0
 20
7920.0
 30
0.0
 11
5850.0
 21
7855.0
 31
0.0
  0
LINE
  5
179
330
17
100
AcDbEntity
  8
DIM
100
AcDbLine
 10
5970.0
 20
7920.0
 30
0.0
 11
5970.0
 21
7855.0
 31
0.0
  0
LINE
  5
17A
330
17
100
AcDbEntity
  8
DIM
100
AcDbLine
 10
5850.0
 20
7855.0
 30
0.0
 11
5970.0
 21
7855.0
 31
0.0
  0
LINE
  5
17B
330
17
100
AcDbEntity
  8
DIM
100
AcDbLine
 10
5838.0
 20
7843.0
 30
0.0
 11
5862.0
 21
7867.0
 31
0.0
  0
LINE
  5
17C
330
17
100
AcDbEntity
  8
DIM
100
AcDbLine
 10
5958.0
 20
7843.0
 30
0.0
 11
5982.0
 21
7867.0
 31
0.0
  0
TEXT
  5
17D
330
17
100
AcDbEntity
  8
DIM
100
AcDbText
 10
5910.0
 20
7827.0
 30
0.0
 40
25.0
  1
展开宽 120
  7
CN
 72
1
 11
5910.0
 21
7827.0
 31
0.0
100
AcDbText
 73
2
  0
LINE
  5
17E
330
17
100
AcDbEntity
  8
DIM
100
AcDbLine
 10
5970.0
 20
7920.0
 30
0.0
 11
6040.0
 21
7920.0
 31
0.0
  0
LINE
  5
17F
330
17
100
AcDbEntity
  8
DIM
100
AcDbLine
 10
5970.0
 20
10020.0
 30
0.0
 11
6040.0
 21
10020.0
 31
0.0
  0
LINE
  5
180
330
17
100
AcDbEntity
  8
DIM
100
AcDbLine
 10
6040.0
 20
7920.0
 30
0.0
 11
6040.0
 21
10020.0
 31
0.0
  0
LINE
  5
181
330
17
100
AcDbEntity
  8
DIM
100
AcDbLine
 10
6028.0
 20
7908.0
 30
0.0
 11
6052.0
 21
7932.0
 31
0.0
  0
LINE
  5
182
330
17
100
AcDbEntity
  8
DIM
100
AcDbLine
 10
6028.0
 20
10008.0
 30
0.0
 11
6052.0
 21
10032.0
 31
0.0
  0
TEXT
  5
183
330
17
100
AcDbEntity
  8
DIM
100
AcDbText
 10
6070.0
 20
8970.0
 30
0.0
 40
25.0
  1
2100
 50
90.0
  7
CN
 72
1
 11
6070.0
 21
8970.0
 31
0.0
100
AcDbText
 73
2
  0
TEXT
  5
184
330
17
100
AcDbEntity
  8
TEXT
100
AcDbText
 10
5910.0
 20
7790.0
 30
0.0
 40
22.0
  1
分段 35 + 50 + 35
  7
CN
 72
1
 11
5910.0
 21
7790.0
 31
0.0
100
AcDbText
 73
2
  0
LWPOLYLINE
  5
185
330
17
100
AcDbEntity
  8
SKIN
100
AcDbPolyline
 90
4
 70
1
 10
7350.0
 20
7920.0
 10
7400.0
 20
7920.0
 10
7400.0
 20
10020.0
 10
7350.0
 20
10020.0
  0
LWPOLYLINE
  5
186
330
17
100
AcDbEntity
  8
CUT
100
AcDbPolyline
 90
4
 70
1
 10
7360.0
 20
8120.0
 10
7390.0
 20
8120.0
 10
7390.0
 20
8220.0
 10
7360.0
 20
8220.0
  0
LINE
  5
187
330
17
100
AcDbEntity
  8
CENTER
100
AcDbLine
 10
7345.0
 20
8170.0
 30
0.0
 11
7405.0
 21
8170.0
 31
0.0
  0
LWPOLYLINE
  5
188
330
17
100
AcDbEntity
  8
CUT
100
AcDbPolyline
 90
4
 70
1
 10
7360.0
 20
8920.0
 10
7390.0
 20
8920.0
 10
7390.0
 20
9020.0
 10
7360.0
 20
9020.0
  0
LINE
  5
189
330
17
100
AcDbEntity
  8
CENTER
100
AcDbLine
 10
7345.0
 20
8970.0
 30
0.0
 11
7405.0
 21
8970.0
 31
0.0
  0
LWPOLYLINE
  5
18A
330
17
100
AcDbEntity
  8
CUT
100
AcDbPolyline
 90
4
 70
1
 10
7360.0
 20
9720.0
 10
7390.0
 20
9720.0
 10
7390.0
 20
9820.0
 10
7360.0
 20
9820.0
  0
LINE
  5
18B
330
17
100
AcDbEntity
  8
CENTER
100
AcDbLine
 10
7345.0
 20
9770.0
 30
0.0
 11
7405.0
 21
9770.0
 31
0.0
  0
LINE
  5
18C
330
17
100
AcDbEntity
  8
DIM
100
AcDbLine
 10
7350.0
 20
7920.0
 30
0.0
 11
7350.0
 21
7855.0
 31
0.0
  0
LINE
  5
18D
330
17
100
AcDbEntity
  8
DIM
100
AcDbLine
 10
7400.0
 20
7920.0
 30
0.0
 11
7400.0
 21
7855.0
 31
0.0
  0
LINE
  5
18E
330
17
100
AcDbEntity
  8
DIM
100
AcDbLine
 10
7350.0
 20
7855.0
 30
0.0
 11
7400.0
 21
7855.0
 31
0.0
  0
LINE
  5
18F
330
17
100
AcDbEntity
  8
DIM
100
AcDbLine
 10
7338.0
 20
7843.0
 30
0.0
 11
7362.0
 21
7867.0
 31
0.0
  0
LINE
  5
190
330
17
100
AcDbEntity
  8
DIM
100
AcDbLine
 10
7388.0
 20
7843.0
 30
0.0
 11
7412.0
 21
7867.0
 31
0.0
  0
TEXT
  5
191
330
17
100
AcDbEntity
  8
DIM
100
AcDbText
 10
7375.0
 20
7827.0
 30
0.0
 40
25.0
  1
宽 50
  7
CN
 72
1
 11
7375.0
 21
7827.0
 31
0.0
100
AcDbText
 73
2
  0
LINE
  5
192
330
17
100
AcDbEntity
  8
DIM
100
AcDbLine
 10
7400.0
 20
7920.0
 30
0.0
 11
7470.0
 21
7920.0
 31
0.0
  0
LINE
  5
193
330
17
100
AcDbEntity
  8
DIM
100
AcDbLine
 10
7400.0
 20
10020.0
 30
0.0
 11
7470.0
 21
10020.0
 31
0.0
  0
LINE
  5
194
330
17
100
AcDbEntity
  8
DIM
100
AcDbLine
 10
7470.0
 20
7920.0
 30
0.0
 11
7470.0
 21
10020.0
 31
0.0
  0
LINE
  5
195
330
17
100
AcDbEntity
  8
DIM
100
AcDbLine
 10
7458.0
 20
7908.0
 30
0.0
 11
7482.0
 21
7932.0
 31
0.0
  0
LINE
  5
196
330
17
100
AcDbEntity
  8
DIM
100
AcDbLine
 10
7458.0
 20
10008.0
 30
0.0
 11
7482.0
 21
10032.0
 31
0.0
  0
TEXT
  5
197
330
17
100
AcDbEntity
  8
DIM
100
AcDbText
 10
7500.0
 20
8970.0
 30
0.0
 40
25.0
  1
高 2100
 50
90.0
  7
CN
 72
1
 11
7500.0
 21
8970.0
 31
0.0
100
AcDbText
 73
2
  0
TEXT
  5
198
330
17
100
AcDbEntity
  8
TEXT
100
AcDbText
 10
7375.0
 20
10075.0
 30
0.0
 40
26.0
  1
零件立面图
  7
CN
 72
1
 11
7375.0
 21
10075.0
 31
0.0
100
AcDbText
 73
2
  0
TEXT
  5
199
330
17
100
AcDbEntity
  8
CUT
100
AcDbText
 10
6500.0
 20
7845.0
 30
0.0
 40
23.0
  1
HINGE-01：30x100，中心高 250 / 1050 / 1850
  7
CN
 72
1
 11
6500.0
 21
7845.0
 31
0.0
100
AcDbText
 73
2
  0
LWPOLYLINE
  5
19A
330
17
100
AcDbEntity
  8
REF-WALL
100
AcDbPolyline
 90
4
 70
1
 10
0.0
 20
5100.0
 10
4200.0
 20
5100.0
 10
4200.0
 20
7600.0
 10
0.0
 20
7600.0
  0
TEXT
  5
19B
330
17
100
AcDbEntity
  8
TEXT
100
AcDbText
 10
2100.0
 20
7505.0
 30
0.0
 40
44.0
  1
LEAF-SKIN-FRONT-01  门扇正面外皮
  7
CN
 72
1
 11
2100.0
 21
7505.0
 31
0.0
100
AcDbText
 73
2
  0
TEXT
  5
19C
330
17
100
AcDbEntity
  8
TEXT
100
AcDbText
 10
150.0
 20
7425.0
 30
0.0
 40
25.0
  1
类型：板件  |  厚度：1 mm
  7
CN
 11
150.0
 21
7425.0
 31
0.0
100
AcDbText
 73
2
  0
TEXT
  5
19D
330
17
100
AcDbEntity
  8
TEXT
100
AcDbText
 10
620.0
 20
7300.0
 30
0.0
 40
27.0
  1
折弯成品截面图
  7
CN
 72
1
 11
620.0
 21
7300.0
 31
0.0
100
AcDbText
 73
2
  0
LWPOLYLINE
  5
19E
330
17
100
AcDbEntity
  8
SKIN
100
AcDbPolyline
 90
4
 70
0
 10
330.0
 20
7150.0
 10
376.0
 20
7150.0
 10
376.0
 20
6989.0
 10
422.0
 20
6989.0
  0
LWPOLYLINE
  5
19F
330
17
100
AcDbEntity
  8
WELD
100
AcDbPolyline
 90
3
 70
1
 10
376.0
 20
7150.0
 10
394.0
 20
7168.0
 10
394.0
 20
7132.0
  0
LWPOLYLINE
  5
1A0
330
17
100
AcDbEntity
  8
WELD
100
AcDbPolyline
 90
3
 70
1
 10
376.0
 20
6989.0
 10
394.0
 20
7007.0
 10
394.0
 20
6971.0
  0
TEXT
  5
1A1
330
17
100
AcDbEntity
  8
TEXT
100
AcDbText
 10
620.0
 20
6910.0
 30
0.0
 40
25.0
  1
t=1
  7
CN
 72
1
 11
620.0
 21
6910.0
 31
0.0
100
AcDbText
 73
2
  0
TEXT
  5
1A2
330
17
100
AcDbEntity
  8
TEXT
100
AcDbText
 10
1505.0
 20
7380.0
 30
0.0
 40
27.0
  1
板材展开图
  7
CN
 72
1
 11
1505.0
 21
7380.0
 31
0.0
100
AcDbText
 73
2
  0
LWPOLYLINE
  5
1A3
330
17
100
AcDbEntity
  8
CUT
100
AcDbPolyline
 90
4
 70
1
 10
1450.0
 20
5220.0
 10
1560.0
 20
5220.0
 10
1560.0
 20
7320.0
 10
1450.0
 20
7320.0
  0
LINE
  5
1A4
330
17
100
AcDbEntity
  8
BEND
100
AcDbLine
 10
1470.0
 20
5220.0
 30
0.0
 11
1470.0
 21
7320.0
 31
0.0
  0
TEXT
  5
1A5
330
17
100
AcDbEntity
  8
BEND
100
AcDbText
 10
1470.0
 20
7358.0
 30
0.0
 40
22.0
  1
B1
  7
CN
 72
1
 11
1470.0
 21
7358.0
 31
0.0
100
AcDbText
 73
2
  0
LINE
  5
1A6
330
17
100
AcDbEntity
  8
BEND
100
AcDbLine
 10
1540.0
 20
5220.0
 30
0.0
 11
1540.0
 21
7320.0
 31
0.0
  0
TEXT
  5
1A7
330
17
100
AcDbEntity
  8
BEND
100
AcDbText
 10
1540.0
 20
7358.0
 30
0.0
 40
22.0
  1
B2
  7
CN
 72
1
 11
1540.0
 21
7358.0
 31
0.0
100
AcDbText
 73
2
  0
LWPOLYLINE
  5
1A8
330
17
100
AcDbEntity
  8
CUT
100
AcDbPolyline
 90
4
 70
1
 10
1490.0
 20
5420.0
 10
1520.0
 20
5420.0
 10
1520.0
 20
5520.0
 10
1490.0
 20
5520.0
  0
LINE
  5
1A9
330
17
100
AcDbEntity
  8
CENTER
100
AcDbLine
 10
1475.0
 20
5470.0
 30
0.0
 11
1535.0
 21
5470.0
 31
0.0
  0
LWPOLYLINE
  5
1AA
330
17
100
AcDbEntity
  8
CUT
100
AcDbPolyline
 90
4
 70
1
 10
1490.0
 20
6220.0
 10
1520.0
 20
6220.0
 10
1520.0
 20
6320.0
 10
1490.0
 20
6320.0
  0
LINE
  5
1AB
330
17
100
AcDbEntity
  8
CENTER
100
AcDbLine
 10
1475.0
 20
6270.0
 30
0.0
 11
1535.0
 21
6270.0
 31
0.0
  0
LWPOLYLINE
  5
1AC
330
17
100
AcDbEntity
  8
CUT
100
AcDbPolyline
 90
4
 70
1
 10
1490.0
 20
7020.0
 10
1520.0
 20
7020.0
 10
1520.0
 20
7120.0
 10
1490.0
 20
7120.0
  0
LINE
  5
1AD
330
17
100
AcDbEntity
  8
CENTER
100
AcDbLine
 10
1475.0
 20
7070.0
 30
0.0
 11
1535.0
 21
7070.0
 31
0.0
  0
LINE
  5
1AE
330
17
100
AcDbEntity
  8
DIM
100
AcDbLine
 10
1450.0
 20
5220.0
 30
0.0
 11
1450.0
 21
5155.0
 31
0.0
  0
LINE
  5
1AF
330
17
100
AcDbEntity
  8
DIM
100
AcDbLine
 10
1560.0
 20
5220.0
 30
0.0
 11
1560.0
 21
5155.0
 31
0.0
  0
LINE
  5
1B0
330
17
100
AcDbEntity
  8
DIM
100
AcDbLine
 10
1450.0
 20
5155.0
 30
0.0
 11
1560.0
 21
5155.0
 31
0.0
  0
LINE
  5
1B1
330
17
100
AcDbEntity
  8
DIM
100
AcDbLine
 10
1438.0
 20
5143.0
 30
0.0
 11
1462.0
 21
5167.0
 31
0.0
  0
LINE
  5
1B2
330
17
100
AcDbEntity
  8
DIM
100
AcDbLine
 10
1548.0
 20
5143.0
 30
0.0
 11
1572.0
 21
5167.0
 31
0.0
  0
TEXT
  5
1B3
330
17
100
AcDbEntity
  8
DIM
100
AcDbText
 10
1505.0
 20
5127.0
 30
0.0
 40
25.0
  1
展开宽 110
  7
CN
 72
1
 11
1505.0
 21
5127.0
 31
0.0
100
AcDbText
 73
2
  0
LINE
  5
1B4
330
17
100
AcDbEntity
  8
DIM
100
AcDbLine
 10
1560.0
 20
5220.0
 30
0.0
 11
1630.0
 21
5220.0
 31
0.0
  0
LINE
  5
1B5
330
17
100
AcDbEntity
  8
DIM
100
AcDbLine
 10
1560.0
 20
7320.0
 30
0.0
 11
1630.0
 21
7320.0
 31
0.0
  0
LINE
  5
1B6
330
17
100
AcDbEntity
  8
DIM
100
AcDbLine
 10
1630.0
 20
5220.0
 30
0.0
 11
1630.0
 21
7320.0
 31
0.0
  0
LINE
  5
1B7
330
17
100
AcDbEntity
  8
DIM
100
AcDbLine
 10
1618.0
 20
5208.0
 30
0.0
 11
1642.0
 21
5232.0
 31
0.0
  0
LINE
  5
1B8
330
17
100
AcDbEntity
  8
DIM
100
AcDbLine
 10
1618.0
 20
7308.0
 30
0.0
 11
1642.0
 21
7332.0
 31
0.0
  0
TEXT
  5
1B9
330
17
100
AcDbEntity
  8
DIM
100
AcDbText
 10
1660.0
 20
6270.0
 30
0.0
 40
25.0
  1
2100
 50
90.0
  7
CN
 72
1
 11
1660.0
 21
6270.0
 31
0.0
100
AcDbText
 73
2
  0
TEXT
  5
1BA
330
17
100
AcDbEntity
  8
TEXT
100
AcDbText
 10
1505.0
 20
5090.0
 30
0.0
 40
22.0
  1
分段 20 + 70 + 20
  7
CN
 72
1
 11
1505.0
 21
5090.0
 31
0.0
100
AcDbText
 73
2
  0
LWPOLYLINE
  5
1BB
330
17
100
AcDbEntity
  8
SKIN
100
AcDbPolyline
 90
4
 70
1
 10
2950.0
 20
5220.0
 10
3020.0
 20
5220.0
 10
3020.0
 20
7320.0
 10
2950.0
 20
7320.0
  0
LWPOLYLINE
  5
1BC
330
17
100
AcDbEntity
  8
CUT
100
AcDbPolyline
 90
4
 70
1
 10
2970.0
 20
5420.0
 10
3000.0
 20
5420.0
 10
3000.0
 20
5520.0
 10
2970.0
 20
5520.0
  0
LINE
  5
1BD
330
17
100
AcDbEntity
  8
CENTER
100
AcDbLine
 10
2955.0
 20
5470.0
 30
0.0
 11
3015.0
 21
5470.0
 31
0.0
  0
LWPOLYLINE
  5
1BE
330
17
100
AcDbEntity
  8
CUT
100
AcDbPolyline
 90
4
 70
1
 10
2970.0
 20
6220.0
 10
3000.0
 20
6220.0
 10
3000.0
 20
6320.0
 10
2970.0
 20
6320.0
  0
LINE
  5
1BF
330
17
100
AcDbEntity
  8
CENTER
100
AcDbLine
 10
2955.0
 20
6270.0
 30
0.0
 11
3015.0
 21
6270.0
 31
0.0
  0
LWPOLYLINE
  5
1C0
330
17
100
AcDbEntity
  8
CUT
100
AcDbPolyline
 90
4
 70
1
 10
2970.0
 20
7020.0
 10
3000.0
 20
7020.0
 10
3000.0
 20
7120.0
 10
2970.0
 20
7120.0
  0
LINE
  5
1C1
330
17
100
AcDbEntity
  8
CENTER
100
AcDbLine
 10
2955.0
 20
7070.0
 30
0.0
 11
3015.0
 21
7070.0
 31
0.0
  0
LINE
  5
1C2
330
17
100
AcDbEntity
  8
DIM
100
AcDbLine
 10
2950.0
 20
5220.0
 30
0.0
 11
2950.0
 21
5155.0
 31
0.0
  0
LINE
  5
1C3
330
17
100
AcDbEntity
  8
DIM
100
AcDbLine
 10
3020.0
 20
5220.0
 30
0.0
 11
3020.0
 21
5155.0
 31
0.0
  0
LINE
  5
1C4
330
17
100
AcDbEntity
  8
DIM
100
AcDbLine
 10
2950.0
 20
5155.0
 30
0.0
 11
3020.0
 21
5155.0
 31
0.0
  0
LINE
  5
1C5
330
17
100
AcDbEntity
  8
DIM
100
AcDbLine
 10
2938.0
 20
5143.0
 30
0.0
 11
2962.0
 21
5167.0
 31
0.0
  0
LINE
  5
1C6
330
17
100
AcDbEntity
  8
DIM
100
AcDbLine
 10
3008.0
 20
5143.0
 30
0.0
 11
3032.0
 21
5167.0
 31
0.0
  0
TEXT
  5
1C7
330
17
100
AcDbEntity
  8
DIM
100
AcDbText
 10
2985.0
 20
5127.0
 30
0.0
 40
25.0
  1
宽 70
  7
CN
 72
1
 11
2985.0
 21
5127.0
 31
0.0
100
AcDbText
 73
2
  0
LINE
  5
1C8
330
17
100
AcDbEntity
  8
DIM
100
AcDbLine
 10
3020.0
 20
5220.0
 30
0.0
 11
3090.0
 21
5220.0
 31
0.0
  0
LINE
  5
1C9
330
17
100
AcDbEntity
  8
DIM
100
AcDbLine
 10
3020.0
 20
7320.0
 30
0.0
 11
3090.0
 21
7320.0
 31
0.0
  0
LINE
  5
1CA
330
17
100
AcDbEntity
  8
DIM
100
AcDbLine
 10
3090.0
 20
5220.0
 30
0.0
 11
3090.0
 21
7320.0
 31
0.0
  0
LINE
  5
1CB
330
17
100
AcDbEntity
  8
DIM
100
AcDbLine
 10
3078.0
 20
5208.0
 30
0.0
 11
3102.0
 21
5232.0
 31
0.0
  0
LINE
  5
1CC
330
17
100
AcDbEntity
  8
DIM
100
AcDbLine
 10
3078.0
 20
7308.0
 30
0.0
 11
3102.0
 21
7332.0
 31
0.0
  0
TEXT
  5
1CD
330
17
100
AcDbEntity
  8
DIM
100
AcDbText
 10
3120.0
 20
6270.0
 30
0.0
 40
25.0
  1
高 2100
 50
90.0
  7
CN
 72
1
 11
3120.0
 21
6270.0
 31
0.0
100
AcDbText
 73
2
  0
TEXT
  5
1CE
330
17
100
AcDbEntity
  8
TEXT
100
AcDbText
 10
2985.0
 20
7375.0
 30
0.0
 40
26.0
  1
零件立面图
  7
CN
 72
1
 11
2985.0
 21
7375.0
 31
0.0
100
AcDbText
 73
2
  0
TEXT
  5
1CF
330
17
100
AcDbEntity
  8
CUT
100
AcDbText
 10
2100.0
 20
5145.0
 30
0.0
 40
23.0
  1
HINGE-01：30x100，中心高 250 / 1050 / 1850
  7
CN
 72
1
 11
2100.0
 21
5145.0
 31
0.0
100
AcDbText
 73
2
  0
LWPOLYLINE
  5
1D0
330
17
100
AcDbEntity
  8
REF-WALL
100
AcDbPolyline
 90
4
 70
1
 10
4400.0
 20
5100.0
 10
8600.0
 20
5100.0
 10
8600.0
 20
7600.0
 10
4400.0
 20
7600.0
  0
TEXT
  5
1D1
330
17
100
AcDbEntity
  8
TEXT
100
AcDbText
 10
6500.0
 20
7505.0
 30
0.0
 40
44.0
  1
LEAF-SKIN-BACK-01  门扇反面外皮
  7
CN
 72
1
 11
6500.0
 21
7505.0
 31
0.0
100
AcDbText
 73
2
  0
TEXT
  5
1D2
330
17
100
AcDbEntity
  8
TEXT
100
AcDbText
 10
4550.0
 20
7425.0
 30
0.0
 40
25.0
  1
类型：板件  |  厚度：1 mm
  7
CN
 11
4550.0
 21
7425.0
 31
0.0
100
AcDbText
 73
2
  0
TEXT
  5
1D3
330
17
100
AcDbEntity
  8
TEXT
100
AcDbText
 10
5020.0
 20
7300.0
 30
0.0
 40
27.0
  1
折弯成品截面图
  7
CN
 72
1
 11
5020.0
 21
7300.0
 31
0.0
100
AcDbText
 73
2
  0
LWPOLYLINE
  5
1D4
330
17
100
AcDbEntity
  8
SKIN
100
AcDbPolyline
 90
4
 70
0
 10
4730.0
 20
7150.0
 10
4684.0
 20
7150.0
 10
4684.0
 20
6989.0
 10
4638.0
 20
6989.0
  0
LWPOLYLINE
  5
1D5
330
17
100
AcDbEntity
  8
WELD
100
AcDbPolyline
 90
3
 70
1
 10
4684.0
 20
7150.0
 10
4702.0
 20
7168.0
 10
4702.0
 20
7132.0
  0
LWPOLYLINE
  5
1D6
330
17
100
AcDbEntity
  8
WELD
100
AcDbPolyline
 90
3
 70
1
 10
4684.0
 20
6989.0
 10
4702.0
 20
7007.0
 10
4702.0
 20
6971.0
  0
TEXT
  5
1D7
330
17
100
AcDbEntity
  8
TEXT
100
AcDbText
 10
5020.0
 20
6910.0
 30
0.0
 40
25.0
  1
t=1
  7
CN
 72
1
 11
5020.0
 21
6910.0
 31
0.0
100
AcDbText
 73
2
  0
TEXT
  5
1D8
330
17
100
AcDbEntity
  8
TEXT
100
AcDbText
 10
5905.0
 20
7380.0
 30
0.0
 40
27.0
  1
板材展开图
  7
CN
 72
1
 11
5905.0
 21
7380.0
 31
0.0
100
AcDbText
 73
2
  0
LWPOLYLINE
  5
1D9
330
17
100
AcDbEntity
  8
CUT
100
AcDbPolyline
 90
4
 70
1
 10
5850.0
 20
5220.0
 10
5960.0
 20
5220.0
 10
5960.0
 20
7320.0
 10
5850.0
 20
7320.0
  0
LINE
  5
1DA
330
17
100
AcDbEntity
  8
BEND
100
AcDbLine
 10
5870.0
 20
5220.0
 30
0.0
 11
5870.0
 21
7320.0
 31
0.0
  0
TEXT
  5
1DB
330
17
100
AcDbEntity
  8
BEND
100
AcDbText
 10
5870.0
 20
7358.0
 30
0.0
 40
22.0
  1
B1
  7
CN
 72
1
 11
5870.0
 21
7358.0
 31
0.0
100
AcDbText
 73
2
  0
LINE
  5
1DC
330
17
100
AcDbEntity
  8
BEND
100
AcDbLine
 10
5940.0
 20
5220.0
 30
0.0
 11
5940.0
 21
7320.0
 31
0.0
  0
TEXT
  5
1DD
330
17
100
AcDbEntity
  8
BEND
100
AcDbText
 10
5940.0
 20
7358.0
 30
0.0
 40
22.0
  1
B2
  7
CN
 72
1
 11
5940.0
 21
7358.0
 31
0.0
100
AcDbText
 73
2
  0
LWPOLYLINE
  5
1DE
330
17
100
AcDbEntity
  8
CUT
100
AcDbPolyline
 90
4
 70
1
 10
5890.0
 20
5420.0
 10
5920.0
 20
5420.0
 10
5920.0
 20
5520.0
 10
5890.0
 20
5520.0
  0
LINE
  5
1DF
330
17
100
AcDbEntity
  8
CENTER
100
AcDbLine
 10
5875.0
 20
5470.0
 30
0.0
 11
5935.0
 21
5470.0
 31
0.0
  0
LWPOLYLINE
  5
1E0
330
17
100
AcDbEntity
  8
CUT
100
AcDbPolyline
 90
4
 70
1
 10
5890.0
 20
6220.0
 10
5920.0
 20
6220.0
 10
5920.0
 20
6320.0
 10
5890.0
 20
6320.0
  0
LINE
  5
1E1
330
17
100
AcDbEntity
  8
CENTER
100
AcDbLine
 10
5875.0
 20
6270.0
 30
0.0
 11
5935.0
 21
6270.0
 31
0.0
  0
LWPOLYLINE
  5
1E2
330
17
100
AcDbEntity
  8
CUT
100
AcDbPolyline
 90
4
 70
1
 10
5890.0
 20
7020.0
 10
5920.0
 20
7020.0
 10
5920.0
 20
7120.0
 10
5890.0
 20
7120.0
  0
LINE
  5
1E3
330
17
100
AcDbEntity
  8
CENTER
100
AcDbLine
 10
5875.0
 20
7070.0
 30
0.0
 11
5935.0
 21
7070.0
 31
0.0
  0
LINE
  5
1E4
330
17
100
AcDbEntity
  8
DIM
100
AcDbLine
 10
5850.0
 20
5220.0
 30
0.0
 11
5850.0
 21
5155.0
 31
0.0
  0
LINE
  5
1E5
330
17
100
AcDbEntity
  8
DIM
100
AcDbLine
 10
5960.0
 20
5220.0
 30
0.0
 11
5960.0
 21
5155.0
 31
0.0
  0
LINE
  5
1E6
330
17
100
AcDbEntity
  8
DIM
100
AcDbLine
 10
5850.0
 20
5155.0
 30
0.0
 11
5960.0
 21
5155.0
 31
0.0
  0
LINE
  5
1E7
330
17
100
AcDbEntity
  8
DIM
100
AcDbLine
 10
5838.0
 20
5143.0
 30
0.0
 11
5862.0
 21
5167.0
 31
0.0
  0
LINE
  5
1E8
330
17
100
AcDbEntity
  8
DIM
100
AcDbLine
 10
5948.0
 20
5143.0
 30
0.0
 11
5972.0
 21
5167.0
 31
0.0
  0
TEXT
  5
1E9
330
17
100
AcDbEntity
  8
DIM
100
AcDbText
 10
5905.0
 20
5127.0
 30
0.0
 40
25.0
  1
展开宽 110
  7
CN
 72
1
 11
5905.0
 21
5127.0
 31
0.0
100
AcDbText
 73
2
  0
LINE
  5
1EA
330
17
100
AcDbEntity
  8
DIM
100
AcDbLine
 10
5960.0
 20
5220.0
 30
0.0
 11
6030.0
 21
5220.0
 31
0.0
  0
LINE
  5
1EB
330
17
100
AcDbEntity
  8
DIM
100
AcDbLine
 10
5960.0
 20
7320.0
 30
0.0
 11
6030.0
 21
7320.0
 31
0.0
  0
LINE
  5
1EC
330
17
100
AcDbEntity
  8
DIM
100
AcDbLine
 10
6030.0
 20
5220.0
 30
0.0
 11
6030.0
 21
7320.0
 31
0.0
  0
LINE
  5
1ED
330
17
100
AcDbEntity
  8
DIM
100
AcDbLine
 10
6018.0
 20
5208.0
 30
0.0
 11
6042.0
 21
5232.0
 31
0.0
  0
LINE
  5
1EE
330
17
100
AcDbEntity
  8
DIM
100
AcDbLine
 10
6018.0
 20
7308.0
 30
0.0
 11
6042.0
 21
7332.0
 31
0.0
  0
TEXT
  5
1EF
330
17
100
AcDbEntity
  8
DIM
100
AcDbText
 10
6060.0
 20
6270.0
 30
0.0
 40
25.0
  1
2100
 50
90.0
  7
CN
 72
1
 11
6060.0
 21
6270.0
 31
0.0
100
AcDbText
 73
2
  0
TEXT
  5
1F0
330
17
100
AcDbEntity
  8
TEXT
100
AcDbText
 10
5905.0
 20
5090.0
 30
0.0
 40
22.0
  1
分段 20 + 70 + 20
  7
CN
 72
1
 11
5905.0
 21
5090.0
 31
0.0
100
AcDbText
 73
2
  0
LWPOLYLINE
  5
1F1
330
17
100
AcDbEntity
  8
SKIN
100
AcDbPolyline
 90
4
 70
1
 10
7350.0
 20
5220.0
 10
7420.0
 20
5220.0
 10
7420.0
 20
7320.0
 10
7350.0
 20
7320.0
  0
LWPOLYLINE
  5
1F2
330
17
100
AcDbEntity
  8
CUT
100
AcDbPolyline
 90
4
 70
1
 10
7370.0
 20
5420.0
 10
7400.0
 20
5420.0
 10
7400.0
 20
5520.0
 10
7370.0
 20
5520.0
  0
LINE
  5
1F3
330
17
100
AcDbEntity
  8
CENTER
100
AcDbLine
 10
7355.0
 20
5470.0
 30
0.0
 11
7415.0
 21
5470.0
 31
0.0
  0
LWPOLYLINE
  5
1F4
330
17
100
AcDbEntity
  8
CUT
100
AcDbPolyline
 90
4
 70
1
 10
7370.0
 20
6220.0
 10
7400.0
 20
6220.0
 10
7400.0
 20
6320.0
 10
7370.0
 20
6320.0
  0
LINE
  5
1F5
330
17
100
AcDbEntity
  8
CENTER
100
AcDbLine
 10
7355.0
 20
6270.0
 30
0.0
 11
7415.0
 21
6270.0
 31
0.0
  0
LWPOLYLINE
  5
1F6
330
17
100
AcDbEntity
  8
CUT
100
AcDbPolyline
 90
4
 70
1
 10
7370.0
 20
7020.0
 10
7400.0
 20
7020.0
 10
7400.0
 20
7120.0
 10
7370.0
 20
7120.0
  0
LINE
  5
1F7
330
17
100
AcDbEntity
  8
CENTER
100
AcDbLine
 10
7355.0
 20
7070.0
 30
0.0
 11
7415.0
 21
7070.0
 31
0.0
  0
LINE
  5
1F8
330
17
100
AcDbEntity
  8
DIM
100
AcDbLine
 10
7350.0
 20
5220.0
 30
0.0
 11
7350.0
 21
5155.0
 31
0.0
  0
LINE
  5
1F9
330
17
100
AcDbEntity
  8
DIM
100
AcDbLine
 10
7420.0
 20
5220.0
 30
0.0
 11
7420.0
 21
5155.0
 31
0.0
  0
LINE
  5
1FA
330
17
100
AcDbEntity
  8
DIM
100
AcDbLine
 10
7350.0
 20
5155.0
 30
0.0
 11
7420.0
 21
5155.0
 31
0.0
  0
LINE
  5
1FB
330
17
100
AcDbEntity
  8
DIM
100
AcDbLine
 10
7338.0
 20
5143.0
 30
0.0
 11
7362.0
 21
5167.0
 31
0.0
  0
LINE
  5
1FC
330
17
100
AcDbEntity
  8
DIM
100
AcDbLine
 10
7408.0
 20
5143.0
 30
0.0
 11
7432.0
 21
5167.0
 31
0.0
  0
TEXT
  5
1FD
330
17
100
AcDbEntity
  8
DIM
100
AcDbText
 10
7385.0
 20
5127.0
 30
0.0
 40
25.0
  1
宽 70
  7
CN
 72
1
 11
7385.0
 21
5127.0
 31
0.0
100
AcDbText
 73
2
  0
LINE
  5
1FE
330
17
100
AcDbEntity
  8
DIM
100
AcDbLine
 10
7420.0
 20
5220.0
 30
0.0
 11
7490.0
 21
5220.0
 31
0.0
  0
LINE
  5
1FF
330
17
100
AcDbEntity
  8
DIM
100
AcDbLine
 10
7420.0
 20
7320.0
 30
0.0
 11
7490.0
 21
7320.0
 31
0.0
  0
LINE
  5
200
330
17
100
AcDbEntity
  8
DIM
100
AcDbLine
 10
7490.0
 20
5220.0
 30
0.0
 11
7490.0
 21
7320.0
 31
0.0
  0
LINE
  5
201
330
17
100
AcDbEntity
  8
DIM
100
AcDbLine
 10
7478.0
 20
5208.0
 30
0.0
 11
7502.0
 21
5232.0
 31
0.0
  0
LINE
  5
202
330
17
100
AcDbEntity
  8
DIM
100
AcDbLine
 10
7478.0
 20
7308.0
 30
0.0
 11
7502.0
 21
7332.0
 31
0.0
  0
TEXT
  5
203
330
17
100
AcDbEntity
  8
DIM
100
AcDbText
 10
7520.0
 20
6270.0
 30
0.0
 40
25.0
  1
高 2100
 50
90.0
  7
CN
 72
1
 11
7520.0
 21
6270.0
 31
0.0
100
AcDbText
 73
2
  0
TEXT
  5
204
330
17
100
AcDbEntity
  8
TEXT
100
AcDbText
 10
7385.0
 20
7375.0
 30
0.0
 40
26.0
  1
零件立面图
  7
CN
 72
1
 11
7385.0
 21
7375.0
 31
0.0
100
AcDbText
 73
2
  0
TEXT
  5
205
330
17
100
AcDbEntity
  8
CUT
100
AcDbText
 10
6500.0
 20
5145.0
 30
0.0
 40
23.0
  1
HINGE-01：30x100，中心高 250 / 1050 / 1850
  7
CN
 72
1
 11
6500.0
 21
5145.0
 31
0.0
100
AcDbText
 73
2
  0
LWPOLYLINE
  5
206
330
17
100
AcDbEntity
  8
REF-WALL
100
AcDbPolyline
 90
4
 70
1
 10
0.0
 20
2400.0
 10
4200.0
 20
2400.0
 10
4200.0
 20
4900.0
 10
0.0
 20
4900.0
  0
TEXT
  5
207
330
17
100
AcDbEntity
  8
TEXT
100
AcDbText
 10
2100.0
 20
4805.0
 30
0.0
 40
44.0
  1
LEAF-TUBE-01  门扇合页边方管骨架
  7
CN
 72
1
 11
2100.0
 21
4805.0
 31
0.0
100
AcDbText
 73
2
  0
TEXT
  5
208
330
17
100
AcDbEntity
  8
TEXT
100
AcDbText
 10
150.0
 20
4725.0
 30
0.0
 40
25.0
  1
类型：方管  |  厚度：1.5 mm
  7
CN
 11
150.0
 21
4725.0
 31
0.0
100
AcDbText
 73
2
  0
TEXT
  5
209
330
17
100
AcDbEntity
  8
TEXT
100
AcDbText
 10
620.0
 20
4600.0
 30
0.0
 40
27.0
  1
方管成品截面图
  7
CN
 72
1
 11
620.0
 21
4600.0
 31
0.0
100
AcDbText
 73
2
  0
LWPOLYLINE
  5
20A
330
17
100
AcDbEntity
  8
SKELETON
100
AcDbPolyline
 90
4
 70
1
 10
330.0
 20
4330.0
 10
490.0
 20
4330.0
 10
490.0
 20
4450.0
 10
330.0
 20
4450.0
  0
LWPOLYLINE
  5
20B
330
17
100
AcDbEntity
  8
SKELETON
100
AcDbPolyline
 90
4
 70
1
 10
336.0
 20
4336.0
 10
484.0
 20
4336.0
 10
484.0
 20
4444.0
 10
336.0
 20
4444.0
  0
TEXT
  5
20C
330
17
100
AcDbEntity
  8
TEXT
100
AcDbText
 10
620.0
 20
4210.0
 30
0.0
 40
25.0
  1
40x30x1.5
  7
CN
 72
1
 11
620.0
 21
4210.0
 31
0.0
100
AcDbText
 73
2
  0
LWPOLYLINE
  5
20D
330
17
100
AcDbEntity
  8
CUT
100
AcDbPolyline
 90
4
 70
1
 10
1450.0
 20
2520.0
 10
1490.0
 20
2520.0
 10
1490.0
 20
4620.0
 10
1450.0
 20
4620.0
  0
LWPOLYLINE
  5
20E
330
17
100
AcDbEntity
  8
CUT
100
AcDbPolyline
 90
4
 70
1
 10
1455.0
 20
2720.0
 10
1485.0
 20
2720.0
 10
1485.0
 20
2820.0
 10
1455.0
 20
2820.0
  0
LINE
  5
20F
330
17
100
AcDbEntity
  8
CENTER
100
AcDbLine
 10
1440.0
 20
2770.0
 30
0.0
 11
1500.0
 21
2770.0
 31
0.0
  0
LWPOLYLINE
  5
210
330
17
100
AcDbEntity
  8
CUT
100
AcDbPolyline
 90
4
 70
1
 10
1455.0
 20
3520.0
 10
1485.0
 20
3520.0
 10
1485.0
 20
3620.0
 10
1455.0
 20
3620.0
  0
LINE
  5
211
330
17
100
AcDbEntity
  8
CENTER
100
AcDbLine
 10
1440.0
 20
3570.0
 30
0.0
 11
1500.0
 21
3570.0
 31
0.0
  0
LWPOLYLINE
  5
212
330
17
100
AcDbEntity
  8
CUT
100
AcDbPolyline
 90
4
 70
1
 10
1455.0
 20
4320.0
 10
1485.0
 20
4320.0
 10
1485.0
 20
4420.0
 10
1455.0
 20
4420.0
  0
LINE
  5
213
330
17
100
AcDbEntity
  8
CENTER
100
AcDbLine
 10
1440.0
 20
4370.0
 30
0.0
 11
1500.0
 21
4370.0
 31
0.0
  0
LINE
  5
214
330
17
100
AcDbEntity
  8
DIM
100
AcDbLine
 10
1450.0
 20
2520.0
 30
0.0
 11
1450.0
 21
2455.0
 31
0.0
  0
LINE
  5
215
330
17
100
AcDbEntity
  8
DIM
100
AcDbLine
 10
1490.0
 20
2520.0
 30
0.0
 11
1490.0
 21
2455.0
 31
0.0
  0
LINE
  5
216
330
17
100
AcDbEntity
  8
DIM
100
AcDbLine
 10
1450.0
 20
2455.0
 30
0.0
 11
1490.0
 21
2455.0
 31
0.0
  0
LINE
  5
217
330
17
100
AcDbEntity
  8
DIM
100
AcDbLine
 10
1438.0
 20
2443.0
 30
0.0
 11
1462.0
 21
2467.0
 31
0.0
  0
LINE
  5
218
330
17
100
AcDbEntity
  8
DIM
100
AcDbLine
 10
1478.0
 20
2443.0
 30
0.0
 11
1502.0
 21
2467.0
 31
0.0
  0
TEXT
  5
219
330
17
100
AcDbEntity
  8
DIM
100
AcDbText
 10
1470.0
 20
2427.0
 30
0.0
 40
25.0
  1
方管面宽 40
  7
CN
 72
1
 11
1470.0
 21
2427.0
 31
0.0
100
AcDbText
 73
2
  0
LINE
  5
21A
330
17
100
AcDbEntity
  8
DIM
100
AcDbLine
 10
1490.0
 20
2520.0
 30
0.0
 11
1560.0
 21
2520.0
 31
0.0
  0
LINE
  5
21B
330
17
100
AcDbEntity
  8
DIM
100
AcDbLine
 10
1490.0
 20
4620.0
 30
0.0
 11
1560.0
 21
4620.0
 31
0.0
  0
LINE
  5
21C
330
17
100
AcDbEntity
  8
DIM
100
AcDbLine
 10
1560.0
 20
2520.0
 30
0.0
 11
1560.0
 21
4620.0
 31
0.0
  0
LINE
  5
21D
330
17
100
AcDbEntity
  8
DIM
100
AcDbLine
 10
1548.0
 20
2508.0
 30
0.0
 11
1572.0
 21
2532.0
 31
0.0
  0
LINE
  5
21E
330
17
100
AcDbEntity
  8
DIM
100
AcDbLine
 10
1548.0
 20
4608.0
 30
0.0
 11
1572.0
 21
4632.0
 31
0.0
  0
TEXT
  5
21F
330
17
100
AcDbEntity
  8
DIM
100
AcDbText
 10
1590.0
 20
3570.0
 30
0.0
 40
25.0
  1
下料长 2100
 50
90.0
  7
CN
 72
1
 11
1590.0
 21
3570.0
 31
0.0
100
AcDbText
 73
2
  0
TEXT
  5
220
330
17
100
AcDbEntity
  8
TEXT
100
AcDbText
 10
1470.0
 20
4675.0
 30
0.0
 40
26.0
  1
方管下料图
  7
CN
 72
1
 11
1470.0
 21
4675.0
 31
0.0
100
AcDbText
 73
2
  0
LWPOLYLINE
  5
221
330
17
100
AcDbEntity
  8
SKELETON
100
AcDbPolyline
 90
4
 70
1
 10
2950.0
 20
2520.0
 10
2990.0
 20
2520.0
 10
2990.0
 20
4620.0
 10
2950.0
 20
4620.0
  0
LWPOLYLINE
  5
222
330
17
100
AcDbEntity
  8
CUT
100
AcDbPolyline
 90
4
 70
1
 10
2955.0
 20
2720.0
 10
2985.0
 20
2720.0
 10
2985.0
 20
2820.0
 10
2955.0
 20
2820.0
  0
LINE
  5
223
330
17
100
AcDbEntity
  8
CENTER
100
AcDbLine
 10
2940.0
 20
2770.0
 30
0.0
 11
3000.0
 21
2770.0
 31
0.0
  0
LWPOLYLINE
  5
224
330
17
100
AcDbEntity
  8
CUT
100
AcDbPolyline
 90
4
 70
1
 10
2955.0
 20
3520.0
 10
2985.0
 20
3520.0
 10
2985.0
 20
3620.0
 10
2955.0
 20
3620.0
  0
LINE
  5
225
330
17
100
AcDbEntity
  8
CENTER
100
AcDbLine
 10
2940.0
 20
3570.0
 30
0.0
 11
3000.0
 21
3570.0
 31
0.0
  0
LWPOLYLINE
  5
226
330
17
100
AcDbEntity
  8
CUT
100
AcDbPolyline
 90
4
 70
1
 10
2955.0
 20
4320.0
 10
2985.0
 20
4320.0
 10
2985.0
 20
4420.0
 10
2955.0
 20
4420.0
  0
LINE
  5
227
330
17
100
AcDbEntity
  8
CENTER
100
AcDbLine
 10
2940.0
 20
4370.0
 30
0.0
 11
3000.0
 21
4370.0
 31
0.0
  0
LINE
  5
228
330
17
100
AcDbEntity
  8
DIM
100
AcDbLine
 10
2950.0
 20
2520.0
 30
0.0
 11
2950.0
 21
2455.0
 31
0.0
  0
LINE
  5
229
330
17
100
AcDbEntity
  8
DIM
100
AcDbLine
 10
2990.0
 20
2520.0
 30
0.0
 11
2990.0
 21
2455.0
 31
0.0
  0
LINE
  5
22A
330
17
100
AcDbEntity
  8
DIM
100
AcDbLine
 10
2950.0
 20
2455.0
 30
0.0
 11
2990.0
 21
2455.0
 31
0.0
  0
LINE
  5
22B
330
17
100
AcDbEntity
  8
DIM
100
AcDbLine
 10
2938.0
 20
2443.0
 30
0.0
 11
2962.0
 21
2467.0
 31
0.0
  0
LINE
  5
22C
330
17
100
AcDbEntity
  8
DIM
100
AcDbLine
 10
2978.0
 20
2443.0
 30
0.0
 11
3002.0
 21
2467.0
 31
0.0
  0
TEXT
  5
22D
330
17
100
AcDbEntity
  8
DIM
100
AcDbText
 10
2970.0
 20
2427.0
 30
0.0
 40
25.0
  1
宽 40
  7
CN
 72
1
 11
2970.0
 21
2427.0
 31
0.0
100
AcDbText
 73
2
  0
LINE
  5
22E
330
17
100
AcDbEntity
  8
DIM
100
AcDbLine
 10
2990.0
 20
2520.0
 30
0.0
 11
3060.0
 21
2520.0
 31
0.0
  0
LINE
  5
22F
330
17
100
AcDbEntity
  8
DIM
100
AcDbLine
 10
2990.0
 20
4620.0
 30
0.0
 11
3060.0
 21
4620.0
 31
0.0
  0
LINE
  5
230
330
17
100
AcDbEntity
  8
DIM
100
AcDbLine
 10
3060.0
 20
2520.0
 30
0.0
 11
3060.0
 21
4620.0
 31
0.0
  0
LINE
  5
231
330
17
100
AcDbEntity
  8
DIM
100
AcDbLine
 10
3048.0
 20
2508.0
 30
0.0
 11
3072.0
 21
2532.0
 31
0.0
  0
LINE
  5
232
330
17
100
AcDbEntity
  8
DIM
100
AcDbLine
 10
3048.0
 20
4608.0
 30
0.0
 11
3072.0
 21
4632.0
 31
0.0
  0
TEXT
  5
233
330
17
100
AcDbEntity
  8
DIM
100
AcDbText
 10
3090.0
 20
3570.0
 30
0.0
 40
25.0
  1
高 2100
 50
90.0
  7
CN
 72
1
 11
3090.0
 21
3570.0
 31
0.0
100
AcDbText
 73
2
  0
TEXT
  5
234
330
17
100
AcDbEntity
  8
TEXT
100
AcDbText
 10
2970.0
 20
4675.0
 30
0.0
 40
26.0
  1
零件立面图
  7
CN
 72
1
 11
2970.0
 21
4675.0
 31
0.0
100
AcDbText
 73
2
  0
TEXT
  5
235
330
17
100
AcDbEntity
  8
CUT
100
AcDbText
 10
2100.0
 20
2445.0
 30
0.0
 40
23.0
  1
HINGE-01：30x100，中心高 250 / 1050 / 1850
  7
CN
 72
1
 11
2100.0
 21
2445.0
 31
0.0
100
AcDbText
 73
2
  0
LWPOLYLINE
  5
236
330
17
100
AcDbEntity
  8
REF-WALL
100
AcDbPolyline
 90
4
 70
1
 10
4400.0
 20
2400.0
 10
8650.0
 20
2400.0
 10
8650.0
 20
4900.0
 10
4400.0
 20
4900.0
  0
TEXT
  5
237
330
17
100
AcDbEntity
  8
TEXT
100
AcDbText
 10
6525.0
 20
4790.0
 30
0.0
 40
48.0
  1
C. 图纸阅读与后续确认
  7
CN
 72
1
 11
6525.0
 21
4790.0
 31
0.0
100
AcDbText
 73
2
  0
TEXT
  5
238
330
17
100
AcDbEntity
  8
TEXT
100
AcDbText
 10
4570.0
 20
4540.0
 30
0.0
 40
30.0
  1
1. 外皮与内骨架分别编号、分别出图。
  7
CN
 11
4570.0
 21
4540.0
 31
0.0
100
AcDbText
 73
2
  0
TEXT
  5
239
330
17
100
AcDbEntity
  8
TEXT
100
AcDbText
 10
4570.0
 20
4335.0
 30
0.0
 40
30.0
  1
2. 折弯骨架输出板材展开；方管骨架输出方管下料。
  7
CN
 11
4570.0
 21
4335.0
 31
0.0
100
AcDbText
 73
2
  0
TEXT
  5
23A
330
17
100
AcDbEntity
  8
TEXT
100
AcDbText
 10
4570.0
 20
4130.0
 30
0.0
 40
30.0
  1
3. 红色孔槽属于加工特征，不是参考图中的普通线条。
  7
CN
 11
4570.0
 21
4130.0
 31
0.0
100
AcDbText
 73
2
  0
TEXT
  5
23B
330
17
100
AcDbEntity
  8
TEXT
100
AcDbText
 10
4570.0
 20
3925.0
 30
0.0
 40
30.0
  1
4. HINGE-01 同时关联门框和门扇，要求孔组同轴。
  7
CN
 11
4570.0
 21
3925.0
 31
0.0
100
AcDbText
 73
2
  0
TEXT
  5
23C
330
17
100
AcDbEntity
  8
TEXT
100
AcDbText
 10
4570.0
 20
3720.0
 30
0.0
 40
30.0
  1
5. 水平剖面表达穿透层；立面表达孔位高度。
  7
CN
 11
4570.0
 21
3720.0
 31
0.0
100
AcDbText
 73
2
  0
TEXT
  5
23D
330
17
100
AcDbEntity
  8
TEXT
100
AcDbText
 10
4570.0
 20
3515.0
 30
0.0
 40
30.0
  1
6. 折弯线 B1/B2 只表达顺序，未计算折弯补偿。
  7
CN
 11
4570.0
 21
3515.0
 31
0.0
100
AcDbText
 73
2
  0
TEXT
  5
23E
330
17
100
AcDbEntity
  8
TEXT
100
AcDbText
 10
4570.0
 20
3310.0
 30
0.0
 40
30.0
  1
7. 焊缝符号仅示意，焊接标准与公差尚未定义。
  7
CN
 11
4570.0
 21
3310.0
 31
0.0
100
AcDbText
 73
2
  0
TEXT
  5
23F
330
17
100
AcDbEntity
  8
TEXT
100
AcDbText
 10
4570.0
 20
3105.0
 30
0.0
 40
30.0
  1
8. 下一版应由厂内实物和正式工艺尺寸校正。
  7
CN
 11
4570.0
 21
3105.0
 31
0.0
100
AcDbText
 73
2
  0
TEXT
  5
240
330
17
100
AcDbEntity
  8
CUT
100
AcDbText
 10
6525.0
 20
2700.0
 30
0.0
 40
52.0
  1
禁止直接用于下料或生产
  7
CN
 72
1
 11
6525.0
 21
2700.0
 31
0.0
100
AcDbText
 73
2
  0
ENDSEC
  0
SECTION
  2
OBJECTS
  0
DICTIONARY
  5
A
330
0
100
AcDbDictionary
281
1
  3
ACAD_COLOR
350
B
  3
ACAD_GROUP
350
C
  3
ACAD_LAYOUT
350
D
  3
ACAD_MATERIAL
350
E
  3
ACAD_MLEADERSTYLE
350
F
  3
ACAD_MLINESTYLE
350
10
  3
ACAD_PLOTSETTINGS
350
11
  3
ACAD_PLOTSTYLENAME
350
12
  3
ACAD_SCALELIST
350
14
  3
ACAD_TABLESTYLE
350
15
  3
ACAD_VISUALSTYLE
350
16
  3
EZDXF_META
350
2D
  0
DICTIONARY
  5
B
330
A
100
AcDbDictionary
281
1
  0
DICTIONARY
  5
C
330
A
100
AcDbDictionary
281
1
  0
DICTIONARY
  5
D
330
A
100
AcDbDictionary
281
1
  3
Model
350
1A
  3
Layout1
350
1E
  0
DICTIONARY
  5
E
330
A
100
AcDbDictionary
281
1
  3
ByBlock
350
1F
  3
ByLayer
350
20
  3
Global
350
21
  0
DICTIONARY
  5
F
330
A
100
AcDbDictionary
281
1
  3
Standard
350
2C
  0
DICTIONARY
  5
10
330
A
100
AcDbDictionary
281
1
  3
Standard
350
22
  0
DICTIONARY
  5
11
330
A
100
AcDbDictionary
281
1
  0
ACDBDICTIONARYWDFLT
  5
12
330
A
100
AcDbDictionary
281
1
  3
Normal
350
13
100
AcDbDictionaryWithDefault
340
13
  0
ACDBPLACEHOLDER
  5
13
330
12
  0
DICTIONARY
  5
14
330
A
100
AcDbDictionary
281
1
  0
DICTIONARY
  5
15
330
A
100
AcDbDictionary
281
1
  0
DICTIONARY
  5
16
330
A
100
AcDbDictionary
281
1
  3
2dWireframe
350
5A
  3
Basic
350
5B
  3
Brighten
350
5C
  3
ColorChange
350
5D
  3
Conceptual
350
5E
  3
Dim
350
5F
  3
EdgeColorOff
350
60
  3
Facepattern
350
61
  3
Flat
350
62
  3
FlatWithEdges
350
63
  3
Gouraud
350
64
  3
GouraudWithEdges
350
65
  3
Hidden
350
66
  3
JitterOff
350
67
  3
Linepattern
350
68
  3
Modeling
350
69
  3
OverhangOff
350
6A
  3
Realistic
350
6B
  3
Shaded
350
6C
  3
Shaded with edges
350
6D
  3
Shades of Gray
350
6E
  3
Sketchy
350
6F
  3
Thicken
350
70
  3
Wireframe
350
71
  3
X-Ray
350
72
  0
LAYOUT
  5
1A
330
D
100
AcDbPlotSettings
  1

  4
A3
  6

 40
7.5
 41
20.0
 42
7.5
 43
20.0
 44
420.0
 45
297.0
 46
0.0
 47
0.0
 48
0.0
 49
0.0
140
0.0
141
0.0
142
1.0
143
1.0
 70
1024
 72
1
 73
0
 74
5
  7

 75
16
 76
0
 77
2
 78
300
147
1.0
148
0.0
149
0.0
100
AcDbLayout
  1
Model
 70
1
 71
0
 10
0.0
 20
0.0
 11
420.0
 21
297.0
 12
0.0
 22
0.0
 32
0.0
 14
1e+20
 24
1e+20
 34
1e+20
 15
-1e+20
 25
-1e+20
 35
-1e+20
146
0.0
 13
0.0
 23
0.0
 33
0.0
 16
1.0
 26
0.0
 36
0.0
 17
0.0
 27
1.0
 37
0.0
 76
1
330
17
  0
LAYOUT
  5
1E
330
D
100
AcDbPlotSettings
  1

  4
A3
  6

 40
7.5
 41
20.0
 42
7.5
 43
20.0
 44
420.0
 45
297.0
 46
0.0
 47
0.0
 48
0.0
 49
0.0
140
0.0
141
0.0
142
1.0
143
1.0
 70
0
 72
1
 73
0
 74
5
  7

 75
16
 76
0
 77
2
 78
300
147
1.0
148
0.0
149
0.0
100
AcDbLayout
  1
Layout1
 70
1
 71
1
 10
0.0
 20
0.0
 11
420.0
 21
297.0
 12
0.0
 22
0.0
 32
0.0
 14
1e+20
 24
1e+20
 34
1e+20
 15
-1e+20
 25
-1e+20
 35
-1e+20
146
0.0
 13
0.0
 23
0.0
 33
0.0
 16
1.0
 26
0.0
 36
0.0
 17
0.0
 27
1.0
 37
0.0
 76
1
330
1B
  0
MATERIAL
  5
1F
102
{ACAD_REACTORS
330
E
102
}
330
E
100
AcDbMaterial
  1
ByBlock
  2

 70
0
 40
1.0
 71
1
 41
1.0
 91
-1023410177
 42
1.0
 72
1
  3

 73
1
 74
1
 75
1
 44
0.5
 73
0
 45
1.0
 46
1.0
 77
1
  4

 78
1
 79
1
170
1
 48
1.0
171
1
  6

172
1
173
1
174
1
140
1.0
141
1.0
175
1
  7

176
1
177
1
178
1
143
1.0
179
1
  8

270
1
271
1
272
1
145
1.0
146
1.0
273
1
  9

274
1
275
1
276
1
 42
1.0
 72
1
  3

 73
1
 74
1
 75
1
 94
63
  0
MATERIAL
  5
20
102
{ACAD_REACTORS
330
E
102
}
330
E
100
AcDbMaterial
  1
ByLayer
  2

 70
0
 40
1.0
 71
1
 41
1.0
 91
-1023410177
 42
1.0
 72
1
  3

 73
1
 74
1
 75
1
 44
0.5
 73
0
 45
1.0
 46
1.0
 77
1
  4

 78
1
 79
1
170
1
 48
1.0
171
1
  6

172
1
173
1
174
1
140
1.0
141
1.0
175
1
  7

176
1
177
1
178
1
143
1.0
179
1
  8

270
1
271
1
272
1
145
1.0
146
1.0
273
1
  9

274
1
275
1
276
1
 42
1.0
 72
1
  3

 73
1
 74
1
 75
1
 94
63
  0
MATERIAL
  5
21
102
{ACAD_REACTORS
330
E
102
}
330
E
100
AcDbMaterial
  1
Global
  2

 70
0
 40
1.0
 71
1
 41
1.0
 91
-1023410177
 42
1.0
 72
1
  3

 73
1
 74
1
 75
1
 44
0.5
 73
0
 45
1.0
 46
1.0
 77
1
  4

 78
1
 79
1
170
1
 48
1.0
171
1
  6

172
1
173
1
174
1
140
1.0
141
1.0
175
1
  7

176
1
177
1
178
1
143
1.0
179
1
  8

270
1
271
1
272
1
145
1.0
146
1.0
273
1
  9

274
1
275
1
276
1
 42
1.0
 72
1
  3

 73
1
 74
1
 75
1
 94
63
  0
MLINESTYLE
  5
22
102
{ACAD_REACTORS
330
10
102
}
330
10
100
AcDbMlineStyle
  2
Standard
 70
0
  3

 62
256
 51
90.0
 52
90.0
 71
2
 49
0.5
 62
256
  6
BYLAYER
 49
-0.5
 62
256
  6
BYLAYER
  0
MLEADERSTYLE
  5
2C
102
{ACAD_REACTORS
330
F
102
}
330
F
100
AcDbMLeaderStyle
179
2
170
2
171
1
172
0
 90
2
 40
0.0
 41
0.0
173
1
 91
-1056964608
 92
-2
290
1
 42
2.0
291
1
 43
8.0
  3
Standard
 44
4.0
300

342
29
174
1
175
1
176
0
178
1
 93
-1056964608
 45
4.0
292
0
297
0
 46
4.0
 94
-1056964608
 47
1.0
 49
1.0
140
1.0
294
1
141
0.0
177
0
142
1.0
295
0
296
0
143
3.75
271
0
272
9
273
9
  0
DICTIONARY
  5
2D
330
A
100
AcDbDictionary
280
1
281
1
  3
CREATED_BY_EZDXF
350
2E
  3
WRITTEN_BY_EZDXF
350
243
  0
DICTIONARYVAR
  5
2E
330
2D
100
DictionaryVariables
280
0
  1
1.4.4 @ 2026-09-25T11:36:57.380610+00:00
  0
VISUALSTYLE
  5
5A
102
{ACAD_REACTORS
330
16
102
}
330
16
100
AcDbVisualStyle
  2
2dWireframe
 70
4
 90
0
 40
0.6
 62
7
290
0
291
0
  0
VISUALSTYLE
  5
5B
102
{ACAD_REACTORS
330
16
102
}
330
16
100
AcDbVisualStyle
  2
Basic
 70
7
 90
1
 40
0.6
 62
7
290
0
291
1
  0
VISUALSTYLE
  5
5C
102
{ACAD_REACTORS
330
16
102
}
330
16
100
AcDbVisualStyle
  2
Brighten
 70
12
 90
2
 40
0.6
 62
7
290
0
291
1
  0
VISUALSTYLE
  5
5D
102
{ACAD_REACTORS
330
16
102
}
330
16
100
AcDbVisualStyle
  2
ColorChange
 70
16
 90
2
 40
0.6
 62
8
290
0
291
1
  0
VISUALSTYLE
  5
5E
102
{ACAD_REACTORS
330
16
102
}
330
16
100
AcDbVisualStyle
  2
Conceptual
 70
9
 90
3
 40
0.6
 62
7
290
0
291
0
  0
VISUALSTYLE
  5
5F
102
{ACAD_REACTORS
330
16
102
}
330
16
100
AcDbVisualStyle
  2
Dim
 70
11
 90
2
 40
0.6
 62
7
290
0
291
1
  0
VISUALSTYLE
  5
60
102
{ACAD_REACTORS
330
16
102
}
330
16
100
AcDbVisualStyle
  2
EdgeColorOff
 70
22
 90
2
 40
0.6
 62
7
290
0
291
1
  0
VISUALSTYLE
  5
61
102
{ACAD_REACTORS
330
16
102
}
330
16
100
AcDbVisualStyle
  2
Facepattern
 70
15
 90
2
 40
0.6
 62
7
290
0
291
1
  0
VISUALSTYLE
  5
62
102
{ACAD_REACTORS
330
16
102
}
330
16
100
AcDbVisualStyle
  2
Flat
 70
0
 90
2
 40
0.6
 62
7
290
0
291
1
  0
VISUALSTYLE
  5
63
102
{ACAD_REACTORS
330
16
102
}
330
16
100
AcDbVisualStyle
  2
FlatWithEdges
 70
1
 90
2
 40
0.6
 62
7
290
0
291
1
  0
VISUALSTYLE
  5
64
102
{ACAD_REACTORS
330
16
102
}
330
16
100
AcDbVisualStyle
  2
Gouraud
 70
2
 90
2
 40
0.6
 62
7
290
0
291
1
  0
VISUALSTYLE
  5
65
102
{ACAD_REACTORS
330
16
102
}
330
16
100
AcDbVisualStyle
  2
GouraudWithEdges
 70
3
 90
2
 40
0.6
 62
7
290
0
291
1
  0
VISUALSTYLE
  5
66
102
{ACAD_REACTORS
330
16
102
}
330
16
100
AcDbVisualStyle
  2
Hidden
 70
6
 90
1
 40
0.6
 62
7
290
0
291
0
  0
VISUALSTYLE
  5
67
102
{ACAD_REACTORS
330
16
102
}
330
16
100
AcDbVisualStyle
  2
JitterOff
 70
20
 90
2
 40
0.6
 62
7
290
0
291
1
  0
VISUALSTYLE
  5
68
102
{ACAD_REACTORS
330
16
102
}
330
16
100
AcDbVisualStyle
  2
Linepattern
 70
14
 90
2
 40
0.6
 62
7
290
0
291
1
  0
VISUALSTYLE
  5
69
102
{ACAD_REACTORS
330
16
102
}
330
16
100
AcDbVisualStyle
  2
Modeling
 70
10
 90
2
 40
0.6
 62
7
290
0
291
0
  0
VISUALSTYLE
  5
6A
102
{ACAD_REACTORS
330
16
102
}
330
16
100
AcDbVisualStyle
  2
OverhangOff
 70
21
 90
2
 40
0.6
 62
7
290
0
291
1
  0
VISUALSTYLE
  5
6B
102
{ACAD_REACTORS
330
16
102
}
330
16
100
AcDbVisualStyle
  2
Realistic
 70
8
 90
2
 40
0.6
 62
7
290
0
291
0
  0
VISUALSTYLE
  5
6C
102
{ACAD_REACTORS
330
16
102
}
330
16
100
AcDbVisualStyle
  2
Shaded
 70
27
 90
2
 40
0.6
 62
7
290
0
291
0
  0
VISUALSTYLE
  5
6D
102
{ACAD_REACTORS
330
16
102
}
330
16
100
AcDbVisualStyle
  2
Shaded with edges
 70
26
 90
2
 40
0.6
 62
7
290
0
291
0
  0
VISUALSTYLE
  5
6E
102
{ACAD_REACTORS
330
16
102
}
330
16
100
AcDbVisualStyle
  2
Shades of Gray
 70
23
 90
2
 40
0.6
 62
7
290
0
291
0
  0
VISUALSTYLE
  5
6F
102
{ACAD_REACTORS
330
16
102
}
330
16
100
AcDbVisualStyle
  2
Sketchy
 70
24
 90
1
 40
0.6
 62
7
290
0
291
0
  0
VISUALSTYLE
  5
70
102
{ACAD_REACTORS
330
16
102
}
330
16
100
AcDbVisualStyle
  2
Thicken
 70
13
 90
2
 40
0.6
 62
7
290
0
291
1
  0
VISUALSTYLE
  5
71
102
{ACAD_REACTORS
330
16
102
}
330
16
100
AcDbVisualStyle
  2
Wireframe
 70
5
 90
0
 40
0.6
 62
7
290
0
291
0
  0
VISUALSTYLE
  5
72
102
{ACAD_REACTORS
330
16
102
}
330
16
100
AcDbVisualStyle
  2
X-Ray
 70
25
 90
2
 40
0.5
 62
7
290
0
291
0
  0
DICTIONARYVAR
  5
243
330
2D
100
DictionaryVariables
280
0
  1
1.4.4 @ 2026-09-25T11:36:57.388881+00:00
  0
ENDSEC
  0
EOF
